<?xml version="1.0" encoding="utf-8"?>
<!-- Generator: Adobe Illustrator 26.4.0, SVG Export Plug-In . SVG Version: 6.00 Build 0)  -->
<svg version="1.1" id="Layer_1" xmlns="http://www.w3.org/2000/svg" xmlns:xlink="http://www.w3.org/1999/xlink" x="0px" y="0px"
	 viewBox="0 0 1920 1080" style="enable-background:new 0 0 1920 1080;" xml:space="preserve">
<style type="text/css">
	.st0{fill:#BF3A2B;}
	.st1{fill:#E54C3C;}
</style>
<g>
	<g>
		<path class="st0" d="M1356.8,237.38c-0.95-27.34-21.23-48.76-47.42-50.85c-24.56-1.97-46.19,14.46-53.73,38.23
			c-6.18,19.5-12.65,38.9-18.4,58.54c-8.27,28.21-15.25,56.76-21.07,85.55c-3.19,15.76-5.28,31.75-5.15,47.89
			c0.04,4.62,0.49,9.33,2.4,13.71c2.56,5.88,6.52,7.49,12.35,4.85c7.87-3.57,13.76-9.7,19.52-15.81
			c19.56-20.77,35.58-44.26,51.38-67.9c14.69-21.98,28.57-44.46,41.69-67.4c5.6-9.78,11.49-19.46,15.45-30.09
			C1355.94,248.42,1356.31,242.41,1356.8,237.38z"/>
		<path class="st0" d="M1444.59,514.2c0.14,7.96-0.25,14.72,3.06,20.87c2.64,4.9,5.33,5.96,10.38,3.94
			c8.14-3.25,14.14-9.39,20.08-15.51c14.61-15.03,26.66-32.06,38.75-49.11c15.76-22.22,30.26-45.24,44.3-68.54
			c8.8-14.6,17.52-29.29,24.7-44.83c11.73-25.4-1.45-58.07-27.58-67.8c-23.91-8.9-48.06-1.2-62.2,20.06
			c-5.62,8.45-8.12,18.31-11.32,27.78c-9.03,26.68-16.69,53.79-23.72,81.04c-6.61,25.61-12.12,51.5-15.33,77.8
			C1445.08,505.06,1444.05,510.24,1444.59,514.2z"/>
		<path class="st1" d="M1327.71,463.52c0.22,4.36,0.23,7.94,0.64,11.48c0.56,4.88,1.16,10.33,6.32,12.36
			c5.13,2.01,9.85-0.84,13.94-3.94c12.11-9.14,21.53-20.88,30.88-32.64c16.85-21.17,31.83-43.66,46.31-66.48
			c13.08-20.63,25.82-41.48,37.29-63.09c5.44-10.26,10.17-20.37,10.29-32.36c0.3-28.44-23.75-51.43-52.18-50.89
			c-19.51,0.37-38.76,13.13-46.13,32.19c-11.59,29.97-20.14,60.84-28.46,91.78c-7.05,26.2-13.19,52.65-16.85,79.58
			C1328.72,449.06,1328.33,456.7,1327.71,463.52z"/>
		<path class="st0" d="M1191.89,456.13c-22.16,0.09-38.71,18.6-38.19,38.34c0.59,22.34,16.7,37.49,37.04,38.14
			c23.68,0.75,39.11-17.84,39.48-37.44C1230.64,472.1,1211.9,455.88,1191.89,456.13z"/>
		<path class="st1" d="M1270.62,546.47c-0.03,21.48,17.06,38.18,39.68,37.64c20.99-0.5,36.54-17.68,36.8-37.12
			c0.3-22.67-17.44-39.07-37.42-39.36C1287.4,507.31,1270.65,524.29,1270.62,546.47z"/>
		<path class="st0" d="M1426.17,635.78c19.16,0.26,36.65-15.4,37.55-35.84c1.01-22.77-15.22-41-39.82-40.58
			c-18.66,0.32-35.3,14.93-36.48,36.33C1386.22,617.44,1403.23,636.02,1426.17,635.78z"/>
	</g>
</g>
</svg>
