<?xml version="1.0" encoding="UTF-8"?>
<svg id="Layer_1" data-name="Layer 1" xmlns="http://www.w3.org/2000/svg" viewBox="0 0 536.2 537.86">
  <defs>
    <style>
      .cls-1 {
        fill: #d3d3e5;
      }

      .cls-2 {
        fill: #6363a3;
      }

      .cls-3 {
        fill: #7575ae;
      }

      .cls-4 {
        fill: #6060a2;
      }

      .cls-5 {
        fill: #fcfcfd;
      }

      .cls-6 {
        fill: #7171ab;
      }

      .cls-7 {
        fill: #6565a4;
      }

      .cls-8 {
        fill: #6666a5;
      }

      .cls-9 {
        fill: #a4a4c9;
      }

      .cls-10 {
        fill: #40408f;
      }

      .cls-11 {
        fill: #f8f8fb;
      }

      .cls-12 {
        fill: #b3b3d2;
      }

      .cls-13 {
        fill: #c2c2db;
      }

      .cls-14 {
        fill: #cccce1;
      }

      .cls-15 {
        fill: #9191be;
      }

      .cls-16 {
        fill: #9b9bc4;
      }

      .cls-17 {
        fill: #a2a2c8;
      }

      .cls-18 {
        fill: #6464a4;
      }

      .cls-19 {
        fill: #6969a7;
      }

      .cls-20 {
        fill: #9d9dc5;
      }

      .cls-21 {
        fill: #505098;
      }

      .cls-22 {
        fill: #6565a5;
      }

      .cls-23 {
        fill: #59599d;
      }

      .cls-24 {
        fill: #b9b9d5;
      }

      .cls-25 {
        fill: #f7f7fa;
      }

      .cls-26 {
        fill: #5e5ea0;
      }

      .cls-27 {
        fill: #7777af;
      }

      .cls-28 {
        fill: #d8d8e7;
      }

      .cls-29 {
        fill: #444491;
      }

      .cls-30 {
        fill: #b7b7d5;
      }

      .cls-31 {
        fill: #7c7cb2;
      }

      .cls-32 {
        fill: #7676ae;
      }

      .cls-33 {
        fill: #e5e5ef;
      }

      .cls-34 {
        fill: #adadcf;
      }

      .cls-35 {
        fill: #c1c1da;
      }

      .cls-36 {
        fill: #e0e0ec;
      }

      .cls-37 {
        fill: #6c6ca9;
      }

      .cls-38 {
        fill: #58589d;
      }

      .cls-39 {
        fill: #424290;
      }

      .cls-40 {
        fill: #c7c7de;
      }

      .cls-41 {
        fill: #9a9ac3;
      }

      .cls-42 {
        fill: #f9f9fb;
      }

      .cls-43 {
        fill: #8383b6;
      }

      .cls-44 {
        fill: #eeeef5;
      }

      .cls-45 {
        fill: #a9a9cc;
      }

      .cls-46 {
        fill: #6161a2;
      }

      .cls-47 {
        fill: #e8e8f1;
      }

      .cls-48 {
        fill: #a8a8cc;
      }

      .cls-49 {
        fill: #bfbfd9;
      }

      .cls-50 {
        fill: #8282b5;
      }

      .cls-51 {
        fill: #7f7fb4;
      }

      .cls-52 {
        fill: #6060a1;
      }

      .cls-53 {
        fill: #9c9cc5;
      }

      .cls-54 {
        fill: #7474ad;
      }

      .cls-55 {
        fill: #fbfbfc;
      }

      .cls-56 {
        fill: #a6a6cb;
      }

      .cls-57 {
        fill: #9898c2;
      }

      .cls-58 {
        fill: #9696c1;
      }

      .cls-59 {
        fill: #8a8aba;
      }

      .cls-60 {
        fill: #c9c9df;
      }

      .cls-61 {
        fill: #5a5a9e;
      }

      .cls-62 {
        fill: #d7d7e7;
      }

      .cls-63 {
        fill: #7979b0;
      }

      .cls-64 {
        fill: #6262a3;
      }

      .cls-65 {
        fill: #bbbbd7;
      }

      .cls-66 {
        fill: #6d6da9;
      }

      .cls-67 {
        fill: #5f5fa1;
      }

      .cls-68 {
        fill: #b8b8d5;
      }

      .cls-69 {
        fill: #8181b5;
      }

      .cls-70 {
        fill: #6e6eaa;
      }

      .cls-71 {
        fill: #8e8ebc;
      }

      .cls-72 {
        fill: #a0a0c7;
      }

      .cls-73 {
        fill: #55559b;
      }

      .cls-74 {
        fill: #454591;
      }

      .cls-75 {
        fill: #aeaecf;
      }

      .cls-76 {
        fill: #9292bf;
      }

      .cls-77 {
        fill: #8080b4;
      }

      .cls-78 {
        fill: #d1d1e3;
      }

      .cls-79 {
        fill: #cccce0;
      }

      .cls-80 {
        fill: #6767a6;
      }

      .cls-81 {
        fill: #cdcde1;
      }

      .cls-82 {
        fill: #a8a8cb;
      }

      .cls-83 {
        fill: #7373ad;
      }

      .cls-84 {
        fill: #6a6aa7;
      }

      .cls-85 {
        fill: #8585b7;
      }

      .cls-86 {
        fill: #efeff5;
      }

      .cls-87 {
        fill: #6a6aa8;
      }

      .cls-88 {
        fill: #cbcbe0;
      }

      .cls-89 {
        fill: #7676af;
      }

      .cls-90 {
        fill: #6868a7;
      }

      .cls-91 {
        fill: #f2f2f7;
      }

      .cls-92 {
        fill: #8c8cbc;
      }

      .cls-93 {
        fill: #464692;
      }

      .cls-94 {
        fill: #8c8cbb;
      }

      .cls-95 {
        fill: #d0d0e3;
      }

      .cls-96 {
        fill: #e1e1ed;
      }

      .cls-97 {
        fill: #e7e7f0;
      }

      .cls-98 {
        fill: #cacadf;
      }

      .cls-99 {
        fill: #cacae0;
      }

      .cls-100 {
        fill: #c0c0da;
      }

      .cls-101 {
        fill: #7a7ab0;
      }

      .cls-102 {
        fill: #c6c6dd;
      }

      .cls-103 {
        fill: #8787b9;
      }

      .cls-104 {
        fill: #6f6faa;
      }

      .cls-105 {
        fill: #c3c3dc;
      }

      .cls-106 {
        fill: #d4d4e5;
      }

      .cls-107 {
        fill: #4b4b95;
      }

      .cls-108 {
        fill: #7e7eb3;
      }

      .cls-109 {
        fill: #6868a6;
      }

      .cls-110 {
        fill: #53539a;
      }

      .cls-111 {
        fill: #9e9ec6;
      }

      .cls-112 {
        fill: #a7a7cb;
      }
    </style>
  </defs>
  <path class="cls-74" d="M366.95,131.68c3.02,5.94,5.34,12.14,6.28,18.76,.44,3.09,2.43,3.01,4.71,2.95,10.69-.24,21.28,.31,31.68,3.14,16.29,4.43,17.37,5.92,14.54,22.56-6.84,40.19-18.86,78.94-32.59,117.22-2.64,7.35-4.41,15.03-8.12,21.99-2.01,3.77-4.31,7.16-8.98,7.92-1.43,.23-2.49,.51-1.62,2.56,8.06,18.9,11.73,39.18,18.32,58.54,2.25,6.61,4.17,13.35,6.1,20.06,.64,2.22,1.63,3.31,4.14,3.28,9.97-.12,19.94-.05,31.37-.05-13.93-21.02-22.3-43.95-36.41-64.04,11.69,2.81,21.73,9.01,32.25,15.28-4.55-16.66-14.69-29.39-24.99-42.02-2.42-2.97-4.86-5.92-7.21-8.94-.66-.85-1.81-1.89-.82-3.04,.87-1.01,2.22-.56,3.28-.13,4.64,1.89,8.96,4.4,13.1,7.2,4.46,3.02,8.9,6.07,14.2,9.69-2.75-7.21-8.39-11.49-10.35-17.87-.46-1.16-.66-2.18,1.13-2.16,6.49,9.52,12.98,19.03,19.47,28.55,.37-.15,.74-.29,1.12-.44-.25-4.38-.43-8.76-.78-13.13-1.51-19.1,1.01-37.85,4.92-56.47,.31-1.5,.07-3.95,2.07-3.9,1.8,.05,1.77,2.48,2.3,4,7.28,20.97,11.56,42.68,15.9,64.37,.76,1.37,.42,3.05,1.25,4.41,.4,3.39,.27,6.79,.13,10.19-.08,1.97-.31,4.06-3.19,3.78-2.36-1.67-2.11-4.24-2.19-6.64-.16-4.72-.11-9.44-1.48-14.02-3.54-17.39-6.67-34.89-11.76-51.93-2.63,9.05-4.28,29.05-3.18,38.41,.41,3.47,.39,6.96,.26,10.45-1.14,7.61-.33,14.43,4.97,20.85,4.99,6.05,9.9,12.52,11.46,20.65,.17,1.87,.44,3.75-.55,5.5-.31,.43-.73,.67-1.26,.73-1.1-.2-1.64-1.04-2.05-1.95-.55-1.21-.48-2.56-.77-3.82-.2,.91,.29,2.32-1.14,2.45-1.77,.16-2.52-1.33-3.22-2.64-2.33-4.37-4.1-9.01-6.48-13.36-4.14-8.3-10.07-15.1-17.04-21.16-6.86-5.97-14.87-10.25-21.53-14.97,10.82,11.79,20.7,25.21,27.2,40.9,2.3,5.11,4.68,10.17,7.24,15.15,1.13,2.19,2.42,4.35,2.06,6.99-.23,.75-.68,1.29-1.45,1.53-1.76,.15-2.63-1.12-3.51-2.28-4-5.3-9.34-9.1-14.58-13.02-4.65-3.76-9.82-6.67-14.98-9.33,3.92,6.53,7.37,13.34,11.13,19.98,5.26,9.24,10.96,18.25,15.33,27.94,2.24,4.96,5.34,7.33,10.76,6.5,.81-.12,1.66-.04,2.48,.09,.94,.16,1.9,.14,2.85,.14,13.45,2.03,21.86-7.27,31.46-13.94,1.8-1.25,.9-2.5,.44-3.86,.22-1.18,1.09-1.65,2.11-1.95,1.93-.52,3.65,.39,5.44,.78,1.38,.27,2.45,.96,3.02,2.29,.19,2.52-2.58,.97-3.22,2.35-6.63,4.99-13.26,9.98-21.08,15.86,4.68,0,8.18-.06,11.69,.01,4.32,.09,8.7-.14,12.93,.52,7.28,1.13,10.01,6.15,7.36,13.04-.53,1.36-.32,1.82,.52,2.87,4.83,6.04,4.49,10.35-1.15,15.29-.7,.61-1.24,.81-.66,1.81,2.31,4.01,3.13,7.99-.07,12.06-.44,.56,.09,1.89,.17,2.87,.19,2.54,.37,5.08-3.13,6.97,3.91,1.07,7.08,1.95,9.14,4.72,2,2.68,2.57,5.71,2.41,8.95-.11,2.24-.59,4.65-2.54,5.71-3.56,1.95-3.2,4.6-2.77,7.93,.56,4.35,2.71,9.26-2.95,12.43-1.21,.68,.55,2.32,1.02,3.46,2.94,7.04,2.4,11.62-1.91,15.35-5.22,.9-10.48,.16-15.71,.43-1.78,.09-3.62-.42-5.34,.44h0c-8.86,.9-17.73,2.28-26.55,2.79-28.86,1.67-57.79,1.48-86.7,1.23-3.99-.03-7.93-.8-11.88-1.25-4.39-.5-4.4-1.9-3.56-6.18,1.13-5.74,3.31-10.97,5.26-16.4,2.11-5.87,.4-11.66-4.96-15.75-.35-1.37,0-2.44,1.31-3.1,10.66-1.17,21.24,.46,31.83,1.17,11.6,.78,23.14,2.48,34.8,2.55,7.15,.04,14.24,1.51,21.42,.97,2.34-.17,4.75-.04,6-2.61,.84-1.79,1.57-3.57,1.61-5.64,.07-3.41-1.13-5.07-4.75-4-6.34,.42-12.66,.58-18.99-.09-3.37-.95-6.8-1.19-10.29-1.17-12.73,.07-25.45,.04-38.18,.02-2.85,0-5.65-.14-7.65-2.62-.7-2.23,.14-3.72,2.23-4.59,18.76-.65,37.53-.11,56.3-.29,1.99-.02,3.99-.02,5.98-.06,2.67-.05,3.86-1.56,4.19-4.01,.34-2.61-1.73-2.88-3.42-3.44-1.76-.58-3.62-.39-5.44-.47-17.73-.77-35.44-1.84-53.06-4.11-.66-.08-1.29-.31-1.93-.49-1.54-.26-2.63-1.31-3.87-2.11-3.02-4.33-2.91-10.2,1.03-14.59,3.72-4.14,4.05-7.84,1.07-12.53-2.64-4.16-2.17-9.02-.95-13.59,1.06-3.97,4.39-5.08,8.1-5.47,5.52-.58,5.51-.66,3.9-6.07-4.17-14.06-8.99-27.9-13.66-41.79-2.06-6.11-2.47-6.39-8.58-5.21-15.72,3.03-31.61,4.67-47.54,5.89-3.58,.27-5.24,1.59-4.99,5.17,.03,.5-.02,1-.01,1.5,.58,25.98-1.69,51.92-1.03,77.91,.06,2.33-.04,4.67-.45,6.98-1.6,5.21-1.17,10.57-.94,15.85,.54,12.61,1.07,25.2-.41,37.79-.27,2.3-.25,4.6,1.7,6.47,2.33,2.22,.84,4.08-1.17,5.18-5.39,2.94-11.19,2.98-16.9,1.2-2.96-.93-3.65-3.77-3.28-6.59,.86-6.63,.73-13.3,.37-19.91-.52-9.53,1.63-18.83,1.65-28.29,0-2-.01-3.99-.44-5.95,.37-19.11,.75-38.21,1.75-57.31,.62-11.78-.16-23.62,1.12-35.39,.39-3.64-1.14-5.34-5.09-5.59-19.09-1.23-38.03-3.88-56.98-6.39-6.02-.8-6.32-.38-6.9,5.7-1.69,17.54-3.71,35.04-6.16,52.5-2.28,16.3-4.17,32.65-6.75,48.91-.37,2.35-.86,4.57-2.25,6.52-4.05,3.73-1.12,8.19-1.26,12.33-.18,1.58,.26,3.02,1.04,4.38,.97,2.82,2.3,5.57,1.92,8.69-.06,3.83-2.34,5-5.75,4.84-1.09,0-2.19,0-3.28-.13-6.23-2.2-12.42-4.49-17.2-9.38-.49-.62-.82-1.32-.95-2.1-.06-1.11,.32-1.97,1.42-2.4,3.12-.34,5.07,2.04,7.5,3.29,2.64,1.35,5.23,2.78,7.97,3.91,1.18,.48,2.6,1.53,3.69,.53,1.11-1.02-.09-2.45-.3-3.69-.53-2.56-1.68-4.7-4.09-5.93-5.37-2.75-10.36-5.94-13.9-11-.48-.68-1.45-.76-2.22-1.06-2.69-1.22-4.62-1.09-5.31,2.41-.28,1.45-.65,3.33-2.91,3.26-1.68-1-1.47-2.83-1.95-4.37-.3-2.44-.21-4.83,.84-7.12,1.26-2.28,3.61-1.94,5.64-2.37,4.1-.41,7.8,1.49,11.73,2.07,2.14,.32,4.26,.63,6.44,.62,2.61-.02,4.16-1.11,4.1-3.85-.13-5.67,1.06-11.3,.95-16.92-.44-22.64,.88-45.24,1.35-67.86,.34-16.29,.58-32.59,.81-48.89,.12-8.36-.33-16.62-2.19-24.79-.44-1.96-.75-3.93-.62-5.94,.38-5.81,4.17-8.29,9.65-6.19,4.55,1.74,8.54,4.53,12.32,7.52,18.3,14.51,38.96,23.53,62.12,26.45,8.89,1.12,17.85,1.98,26.79,2.59,12.32,.85,21.24-7.14,22.83-19.46,.33-2.6,.95-5.15,1.35-7.46-.62,.42-.26,1.46-.47,2.33-.25,1.04-.72,1.88-1.94,1.88-1.18,0-1.79-.86-2.16-1.78-.93-2.32-1.14-4.85-2.15-7.14-1.17-4.89-4.62-8.12-8.63-10.48-15.28-8.96-31.68-15.33-48.63-20.33-.45-.13-1.22-.62-1.3-.37-1.96,6.18-5.61,1.39-8.18,1-6.66-1.03-12.97-4.07-19.94-3.44-14.34-1.95-28.73-2.65-43.19-2.97-10.26-.23-20.46-2.08-30.79-1.87-12.59,.26-17.32,4.53-16.82,17.32,.65,16.46,3.59,32.64,7.59,48.63,1.19,4.77,3.45,9.43,2.45,14.59-2.92,5.26-1.75,10.71-.77,16.17-.45,10.67,2.17,21.21,1.52,31.83-.98,15.91-.43,31.91-2.88,47.73-.15,.99-.1,2.08-.58,2.92-6.35,11.03-2.01,22.34-.75,33.51,.59,5.26,2.07,10.42,2.15,15.77,.42,4.38-2.51,6.58-5.65,8.64-3.22,1.7-6.58,2.12-10.08,1.05-1.55-.52-1.85-2.01-2.5-3.24-.81-.95-2.29-1.54-1.78-3.23,.71-1.15,1.97-1.69,2.89-2.61,1.5-5.22,1.35-10.2-1.92-14.78-2.06-1.3-4.37-2.13-6.43-3.42-1.53-.95-3.01-1.99-2.88-4.13,.33-1.1,1.15-1.57,2.21-1.71,1.85-.23,3.32,1.45,5.68,.96-.06-5.57-1.44-10.96-3.17-16.19-.89-2.68-3.24-3.08-5.33-.58-.71,.84-1.13,2.1-2.6,1.91-1.27-1.35-.81-2.85-.39-4.34,0-.17,.08-.4,0-.49-7.52-8.43-4.78-19.06-5.69-28.72-2.61-27.83-4.39-55.72-9.03-83.34-3.42-20.34-6.01-40.81-8.93-61.23-2.19-15.32,5.04-26.48,20-31.01,1.71-.52,3.42-1.03,5.57-1.68-3.57-2.93-4.34-6.91-5.68-10.56-7.7-20.93-15.34-41.88-22.95-62.84-.9-2.49-1.52-5.09-2.27-7.64-.5-1.17-.59-2.17,1-2.51,2.98,1.04,3.4,3.91,4.33,6.32,8.55,22.21,16.71,44.56,24.83,66.92,1.38,3.81,3.63,5.63,7.54,6.03,22.16,2.28,44.35,4.26,66.46,7.04,6.36,.8,6.4,.45,6.25-6.02,.99-4.39,1.01-4.4,3.57-2.98l.1-.02c.33,.31,.61,.66,.86,1.05,.53,1.77,.92,3.58,1.74,5.25,1.85,3.78,5.65,3.5,8.71,3.5,17.1,.04,34.08,2.68,51.19,2.2,4.29-.12,8.57,1.12,12.88,.02,.99-.25,1.94-.41,2.55-1.31,.58-.61,1.27-.99,2.11-1.1,3.25,3.22,2.7,6.36-1.83,7.93-4.82,1.67-9.7,3.27-14.22,4.21,11.23,1.16,22.64,3.87,33.84,7.55,3.11,1.56,3.22-.54,2.52-2.43-1.32-3.57-1.92-7.41-3.56-10.82-3.62-7.5-4.81-15.75-7.65-23.48-.92-2.5-2.11-4.86-3.1-7.33-.12-.49-.15-.99-.1-1.5,.21-1.05,.66-1.9,1.83-2.1,3.26,1.03,4.14,4.15,5.59,6.65,5.64,9.78,10.99,19.72,17.18,29.17,2.64,4.03,5.43,7.96,8.59,11.6,4.86,5.6,6.23,5.52,10.37-.45,3.7-5.35,6.6-11.11,8.77-17.26,2.2-6.27,3.57-12.8,6.13-18.94,1.07-2.55,.23-3.56-2.43-3.95-3.36-.5-6.57-.59-9.75,.83-2.58,1.14-5.25,2.1-8.09,2.39-1.12,.37-2.12,1.13-3.38,1.03-2.61-.4-3.79-2.49-5.16-4.35-8.89-12.03-17.36-24.35-25.58-36.84-.64-1.83-2.41-3.3-1.78-5.54,.3-.74,.8-1.23,1.62-1.35,2.04,.32,3.04,1.92,4.08,3.41,4.02,5.73,8.27,11.29,12.16,17.11,.78,.97,1.03,2.46,2.95,2.76,.47-3.94,2.43-7.39,3.54-11.13,2.25-8.9,3.27-18,4.51-27.06,.28-2.02-.05-4.88,3.73-4.59,1.4,.11,1.46-1.98,1.98-3.12,2.57-5.62,5.49-11.02,9.5-15.77,.86-1.02,1.69-2.08,2.82-2.8,1.13-.72,2.43-1.54,3.62-.38,1,.97,.22,2.18-.23,3.22-.33,.76-.83,1.44-1.3,2.13-9.87,14.44-16.07,30.15-16.45,47.86-.02,.83-.12,1.66-.23,2.49-1.38,11.33-1.4,11.37,8.57,16.63,5.19,2.74,10.81,4.26,16.56,5.37,3.42,.66,5.34-.1,5.66-4.02,.51-6.33,2.48-12.39,4.27-18.45,3.07-10.44,4.35-21.18,5.31-31.95,.51-5.7-1.45-11.17-2.83-16.65-.57-2.25-1.59-4.39-1.49-6.8,.32-1.34,.38-2.9,2.37-2.83Z"/>
  <path class="cls-111" d="M348.09,489.43c7.61,1.92,7.46,7.71,7.05,13.8-.18,2.69-.18,5.04-2.48,7.17-2.57,2.39-3.04,5.98-2.42,9.33,.57,3.07,.1,4.93-3.87,4.86,.14,.42,.28,.85,.42,1.27,5.93,.53,11.87,1.48,17.8,1.52,35.46,.22,70.93,.2,106.36-1.92,1.65-.1,3.32,.01,4.98,.03-3.11,2.24-6.79,.78-10.17,1.55-16.35,3.76-33.04,5.54-49.72,4.82-13.63-.58-26.72,2.33-40.08,3.33-6.96,.52-14.02,.76-20.96,.16-6.79-.59-13.45-.12-20.16,.39-4.53,.34-8.99,.95-13.61-.12-2.51-.58-5.33,.58-8.12,.67-12.46,.42-24.91-1.36-37.42,.84-7.23,1.27-14.84,.57-22.27,.39-21.09-.52-42.16-1.22-63.27-1.08-13.98,.09-27.91,1.62-41.9,1.05-18.59-.77-37.17-1.54-55.66-3.77-1.48-.18-2.99-.14-4.49-.2-6.7-.02-12.25-2.5-17.62-6.62-4.08-3.13-9.64-3.17-14.85-3.54-10.95-.78-21.9-1.69-32.23-5.97-9.18-3.81-12.69-11.03-9.69-20.53,.55-1.74,.41-3.67,1.44-5.26,1.4-.16,2.95,.24,4.03-1.1,9.54,4.14,19.5,2.46,29.36,2.11,.63-.02,1.26-.36,1.93-.45q8.09-1.07,9.2-9.39c.2-1.49,.26-3.07,2.27-3.31,.4,1.8,1.35,3,3.35,3.01,5.6,.03,11.2,.06,16.79,.09,.95,2.91-3.04,5.28-.89,8.31,.67,1.66,1.35,3.31,3.26,3.97,7.71,2.78,15.56,2,23.55,1.79,10.07-.26,19.93-3.05,30.05-2.01,3.68-.19,7.46,.52,10.98-1.17,1.88,2.37,1.95,2.89-.4,4.78-3.74,3.01-7.28,6.32-11.83,8.21-1.67,.7-3.29,1.59-4.68,2.83-3.16,2.83-4.7,7.65-3.23,11.36,1.55,3.91,4.98,5.09,8.84,5.4,8.83,.7,17.63-.39,26.34-1.22,10.69-1.02,21.42-1.98,32.06-3.69,5.97-.96,7.23-2.16,7.45-8.33,.23-6.49-.88-12.86-1.49-19.28-.68-2.65-1.36-5.31-2.04-7.96-1.04-3.12,1.27-3.12,3.21-3.44,7.02-1.18,14.11-1.86,21.18-2.71,.73-.09,.65-.4,.68-.83,5.68-2.68,11.67-4.25,17.89-4.96,10.89-1.24,21.82-1.07,32.76-1.05,2.42,0,5.18,.43,6.04-2.91,.31-1.98,.04-3.99,.39-5.95,.31-1.72,.26-3.78,2.7-4.16-.44,17.94-.77,35.88-1.4,53.82-.2,5.73-.12,6.21,5.77,6.4,4.86,.15,9.63-.04,14.72-3.64-5.05,.7-5.14-1.86-4.88-4.96,1.48-17.76,.79-35.57,1.12-53.35,.03-1.47,.41-2.93,.63-4.39,3.16,2.76,1.85,6.5,2,9.84,.26,5.84,1.34,6.69,7.1,6.91,9.11,.35,18.26-1.39,27.34,.54,2.3,.49,4.63,.04,6.94-.36,3.09-.53,6.01-.29,8.02,2.62,.9,2.39-.86,4.04-1.71,5.91-1.53,3.37-2.97,6.74-2.44,10.57Z"/>
  <path class="cls-10" d="M248.9,46.76c-9.1,.16-11-.54-15.89-6.17,3.24,.18,6.06,1.51,8.88,.13,4.11-2.01,4.53-3.95,1.28-7.1-6.57-6.36-10.21-13.85-9.3-23.24,.34-3.53,1.68-5.59,5.39-4.05,11.24,4.66,21.36,3.54,32.16-2.73,8.33-4.84,18.27-5.22,26.87,1.46,1.06,.82,2.2,.55,3.34,.59,1.17,.04,2.42,.04,3.27,.96,9.47,10.28,20.23,19.76,21.86,34.94,.11,.99,.25,1.98,.38,2.97,.47,2.43,.79,4.85-.18,7.24-2.83,.37-3.13-1.89-3.67-3.7-.89-3.02-1.5-6.12-2.18-9.2-1.76-7.99-5.47-14.84-11.42-20.57-2.86-2.75-5.91-4.76-9.89-5.2-.98-.34-1.82-.85-2.06-1.96,.01-.96,1.05-1.2,1.38-1.93-1.08,0-2.17,.14-3.25-.14-9.17-6.64-17.99-5.93-31.31,2.74,4.91,1.58,9.24,4.26,14.41,3.63,2.09-.26,2.98,1.06,4.06,2.29,.79,.67,1.53,1.42,2.67,1.49,.68,.04,1.35,.05,2.03,.09,4.26,.49,6.62,3.67,8.98,6.63,7.22,9.06,12.55,19.17,16.34,30.11,.51,.89,.85,1.84,.81,2.88-1.21,4.39-3.72,8.49-3.02,13.31,.06,2.89,1.53,5.01,3.75,6.65,1.45,1.07,3.22,1.29,4.68,.3,2.08-1.4-.01-2.54-.61-3.67-2.32-4.45-.74-8.44,1.6-12.16,1.68-2.67,4.17-4.29,7.61-3.14,1.05,.44,2.12,.88,3.07,1.53,1.09,13.02-3.46,20.16-14.72,23.06-2.68,.71-4.76-.67-6.88-1.93-5.31-5.85-4.43-12.57-2.83-19.46,.26-1.12,2.57-3.31-1.06-3.37-.69,.14-1.31,0-1.91-.33-.92-.6-1.99-.85-3.04-1.15-1.14-.32-1.97-1.24-3.09-1.6-5.15-4.08-5.48-5.92-2.52-14.59-11.31,5.98-23,4.86-34.55,1.56-4.52-1.29-7.24-.77-8.85,3.7-1.24,.86-1.87-.13-2.57-.87Z"/>
  <path class="cls-68" d="M15.15,491.58c.79,1.54,2.05,2.71,1.03,4.94-4.13,9.04-.86,15.89,8.42,19.4,10.53,3.98,21.5,4.86,32.55,5.67,6.77,.5,13.61,1.14,18.48,6.93,3.24,3.85,8.16,3.69,12.45,4.99-17.88-1.38-35.8-.75-53.7-1.08-7.22-.13-13.79-1.91-16.49-10.09-1.79-5.42-7.1-7.45-11.63-9.49-7.03-3.16-6.65-8.65-5.88-15.24,.47-3.96,4.75-5.98,11.26-6.07,1.16-.02,2.32,.03,3.49,.04Z"/>
  <path class="cls-107" d="M488,394.76c.98-.67,1.96-1.34,2.93-2.01,.5-.54,1.17-.76,1.8-.53,5.74,2.01,11.07,4.81,15.53,7.68-1.68-3.17-3.28-7.25-8.66-8.28-3.55-.68-2.36-3.24-.44-5.19,.6-.47,1.28-.75,2.04-.86,8.05,3.17,17.07,1.09,23.97,3.37-5.77-5.31-14.17-9.54-22.27-14.23-6.56-2.28-13.29-3.36-20.24-2.82-1.33,.1-2.62-.04-3.72-.92-1.36-2.41,.35-3.6,2.11-4.01,6.83-1.61,12.42-6.26,19.31-7.64,8.12-3.36,16.92-4.65,25.35-8.24-9.63-1.64-18.72-4.46-28.19-5.46-4.83-.51-9.32-.17-12.32,4.39-4.83,9.59-8.69,19.6-12.86,29.47-.36,1.7-1.25,3.14-2.12,4.6-1.06,1.32-1.74,2.82-2.11,4.48-1.19,2.96-2.99,5.55-4.96,8.01-1.03,1.28-2.35,2.9-4.11,1.83-1.48-.9-.69-2.69-.25-4.12,.1-.32,.23-.62,.37-.92,7.99-16.23,12.87-33.77,21.07-49.91,3.75-8.02,7.9-15.84,11.96-23.7,.78-1.51,2.43-2.86,1.27-4.9-.48-.72-1.18-1.39-.59-2.37,1.12-.83,2.37-.93,3.75-.95,2.8-.04,4.19,.41,2.61,3.66-3.69,7.61-7.15,15.32-10.68,23.01-.54,1.17-1.49,2.24-1.15,4.04,11.95-2.02,23.22,1.95,34.71,4.16,3.58,.69,7.23,1.05,10.83,1.64,1.25,.2,3.05,.08,3.21,1.73,.16,1.59-1.61,1.99-2.77,2.44-6.36,2.43-12.76,4.75-19.15,7.1-5.75,2.12-11.5,4.22-17.25,6.34-.91,.65-2.21,.31-3.06,1.19,1.12,2.11,3.55,.52,4.97,1.75,12.19,4.23,22.36,11.65,31.75,20.26,1,.92,2.82,1.9,1.91,3.62-.77,1.46-2.4,.43-3.65,.38-5.32-.2-10.64-.36-15.96-.67-3.35-.2-4.76,.44-2.73,4.02,1.63,2.88,2.96,5.99,2.98,9.43,0,1.11,.39,2.53-.95,3.09-1.44,.6-2-.83-2.72-1.65-4.86-5.53-11.64-8.2-17.71-11.92-1.21-.75-2.52-.74-3.86-.41Z"/>
  <path class="cls-73" d="M61.93,479.44c-1.25,2.52-.81,5.25-.68,7.84,.19,3.81-1.64,5.57-5.08,5.99-10.56,1.28-21.15,1.96-31.77,1.02-2.4-.21-4.85-.68-5.23-3.81,.25-16.63,.59-33.25,.67-49.88,.02-3.61,1.74-5.23,4.81-5.83,9.01-1.75,18.09-2.37,27.23-1.12-.48,2.81-2.82,2.28-4.6,2.35-5.18,.22-10.31,1.56-14.32,.88,5.5,.38,12.11-.84,18.77-1.32,1.07-.08,1.94,.28,2.51,1.23,.21,1.93-1.83,1.51-2.37,2.11,2.32,.03,6.02-2.55,6.91,1.13,.69,2.87-3.49,3.28-5.96,3.76-3.71,.72-7.45,1.46-11.28,1.34-4.52,.9-8.95,.01-13.33-.84-3-.59-4.2,.11-4.21,3.39-.02,12.44,.35,24.89-.23,37.33-.07,1.42,.06,2.89,1.64,3.22,4.98,1.02,9.75,3.25,15.01,2.67,3.81-.37,7.57-1.14,11.39-1.45,3.57-.28,5.22-2.09,5.29-5.84,.24-12.97,2.25-25.85,1.96-38.85-.04-1.71,.67-3.25,.78-4.9-.46-1.9-1.67-3.07-3.49-3.76-1.16-.44-2.66-.7-2.28-2.56,9.09,0,10.01,.68,9.7,9.47-.42,12.14-1.23,24.27-1.87,36.41Z"/>
  <path class="cls-23" d="M94.95,154.68c-.33,.73-.66,1.46-.98,2.19-1.62-4.35-3.1-8.77-4.9-13.05-1.52-3.61-.64-5.31,3.34-5.48,10.97-.47,21.94-1.05,32.91-1.53,14.13-.62,28.27-1.06,42.4-1.84,4.11-.23,6.11,1.65,7.55,5.04,5.36,12.57,9.89,25.45,14.1,38.43,5.6,17.26,13.78,33.59,18.15,51.28,.16,.65,.28,1.3,.42,1.95-3.27-.64-1.2,2.11-1.95,3.07-3.25-.6-3.09-3.58-3.81-5.77-9.37-28.55-20.09-56.63-29.64-85.12-.52-1.55-.89-3.22-2.11-4.46-10.57-.34-21.16,.12-31.63,.97-13.91,1.13-27.87,.45-41.72,2.04-1.34,.15-3.15-.33-3.82,1.59,.06,2.06,1.37,3.7,1.85,5.62,.42,1.7,1.54,3.42-.14,5.07Z"/>
  <path class="cls-64" d="M248.9,46.76c.73,.32,1.46,.64,2.18,.95,3.45,4.52,1.32,9.98,2.52,14.87,1.77,3.65,1.6,7.74,2.65,11.55,.62,1.34,2.02,1.6,3.14,2.25,.76,.68,1.2,1.46,.84,2.51-.29,.39-.64,.7-1.05,.95-2.2,.43-2.4,1.68-1.78,3.65,2.19,7.06,5.67,13.46,9.51,19.72,1.75,2.86,5.62,2.05,7.38,4.7-.59,2.65-3.1,1.91-4.75,2.69-4.49-.57-8.92-.49-13.14,1.44-1.58,.24-2.64-1.44-4.25-1.12-3.53-2.44-4.34-6.56-6.2-10.03-.85-1.59-1.07-3.53-2.63-4.74-4.63-2.84-10.03-1.97-14.97-2.47-7.86-.79-15.08-3.44-22.57-5.32-1.43-.36-2.94-.5-4.38-.83-1.76-.4-3.66-.79-3.86-3.16,1.61-3.15,4.45-2.28,6.97-1.95,4.81,.62,9.18,2.84,13.83,4.1,.96,.26,1.9,.63,2.88,.79,2.58,.43,6.35,1.68,7.12-1.13,.79-2.87-3.37-2.66-5.42-3.53-4.13-1.74-8.44-3.1-12.32-5.36-3.68-2.15-6.77-2.35-9.48,1.43-.86,1.2-2,2.25-3.66,2.35-.81-.16-1.3-.65-1.48-1.45,5.28-9.23,7.23-9.89,16.67-5.89,5.5,2.33,11.05,4.55,16.6,6.76,3.43,1.37,5.88,3.31,4.54,7.48-.43,1.34-.49,2.64,1.19,2.31,11.3-2.24,14.04,6.31,17.34,13.83,1.65,3.78,3.67,4.05,7.35,3.11,3.52-.91,4.07-2.01,2.25-4.95-4.06-6.54-6.86-13.56-8.79-21.05-.99-3.84-5.5-5.15-7.85-8.41-1.92-2.66-1.85-3.6,.61-4.64,3.6-1.53,4.1-3.82,3.52-7.52-.72-4.55-.38-9.27-.49-13.92Z"/>
  <path class="cls-64" d="M295.98,213.65c-.39,.73-.79,1.46-1.18,2.18-2.5-.23-2.95-2.4-3.82-4.12-2.48-4.89-4.75-9.91-6.89-14.93-6.13-14.41-19.11-23.2-28.17-35.18-1.59-2.1-4.09-3.63-5.24-5.98-3.49-7.1-9.8-8.67-16.79-9.44-2.64-.29-4.27,.32-4.75,2.95-2.48,13.56-6.35,26.87-7.31,40.7-.27,1.29-1.03,2.21-2.19,2.8-.23,.06-.47,.12-.71,.17-2.01-1.29-1.28-3.14-1.06-4.93,1.73-13.83,4.12-27.55,8.19-40.87,1.41-4.63,.9-8.21-1.87-11.89-.98-1.3-1.54-2.9-2.3-4.37,.17-.97,.28-1.98,1.42-2.37,2.94,.59,3.67,3.23,4.64,5.4,1.99,4.43,5.32,6.59,10.04,6.93,3.15,.23,6.27,.69,9.38,1.21,1.03,.17,2.04,.34,2.04-1.23,.19-.72,.61-1.2,1.34-1.39,5.87,2.89,9.48,8.05,13.05,13.21,.65,.93,1.02,2.29,0,3.21-1.01,.91-2.22,.39-3.23-.24-2.25-1.39-4-3.5-6.72-4.37,8.26,8.77,16.8,17.29,24.31,26.73,3.06,3.37,5.52,7.12,7.35,11.3,3.37,6.22,6.38,12.63,9.56,18.94,.86,1.7,2.08,3.47,.91,5.55Z"/>
  <path class="cls-110" d="M303.87,58.45c.36,.4,.71,.81,1.07,1.21,1.76,1.76,.58,3.7,.31,5.57-.62,4.26-1.02,8.51,.41,12.68,.69,2,1.4,4.11,4.22,3.84,2.11,1.01,4.22,2.02,6.34,3.03-.94,.25-1.9,.77-2.83,.71-3-.17-2.8,1.2-2.57,3.64,.78,8.09,4.08,13.26,12.55,15.68,10.01,2.85,19.63,7.08,29.08,11.53,6.82,3.21,12.29,7.75,14.51,15.33-1.01,.78-.9,1.93-.98,3.02-2.48,.16-2.87-2-3.62-3.51-2.75-5.5-7.21-8.89-12.66-11.5-8.88-4.25-18.22-7.39-27.14-11.51-3.23-1.49-4.64-.59-6.23,2.27-5.57,10.01-14.63,15.31-25.51,17.55-8.16,1.68-12.69-.82-14.65-7.23,1.25-7.68,5.61-11.85,12.88-12.33,1.57,2.13,.3,3.86-.78,5.62-1.7,2.75-5.12,3.16-7.22,5.35-.09,2.1,1.22,3.09,2.94,3.76,9.05,1.08,23.8-7.26,27.31-15.4,.55-1.29,.79-2.59,.23-3.87-2.15-4.87-3.39-10.02-4.66-15.17-2.78,.09-3.23,3.86-6.07,3.12-.9-.65-1.36-1.54-1.46-2.63,1.46-4.11,1.57-8.08,.33-12.45-1.16-4.08-.81-8.56,.12-12.79,.52-2.35,.96-5.01,4.1-5.53Z"/>
  <path class="cls-90" d="M79.97,491.72c-2.66-3.83,.1-6.42,2.11-9.18,3.44-2.67,7.27-4.6,11.6-5.08,3.86-.43,5.77-4.29,9.42-4.94,1.79,.86,2.15,4.26,5.18,2.9,.84-.5,1.55-1.13,1.84-2.11,.35-.56-.76-.46-.14-.22,.09,.04-.1,.58-.24,.87-.38,.75-1.09,1.15-1.72,1.62-2.63,.61-3.25-2.11-4.97-3,2.41-4.33,7.64-6.01,9.69-10.91,1.45-3.48,2.48-7.63,7.7-8.71,1.37-.29,1.71-5.57,2.52-8.56,.41,1.36-.21,2.97,1.01,4.13,1.36,5.12,5.4,9.3,5.23,14.96-.75,.43-1.51,.86-2.26,1.3-.93,.99-2.43,1.02-3.36,2.02-4.91,4.13-8.6,9.53-14.14,13.05-2.11,1.34-4.08,2.74-6.49,3.43-2.96,.29-4.95-2.47-7.97-2.37-6.12,.2-11.23,3.9-13.21,10.01-.43,.64-.94,1.08-1.78,.81Z"/>
  <path class="cls-61" d="M492.9,312.5c.73,.4,1.47,.8,2.2,1.21,.22,1.41-.74,2.14-1.7,2.78-9.04,5.96-15.7,14.12-21.46,23.12-4.88,8.97-8.9,18.3-12.26,27.93-.47,1.34-.53,3.03-2.49,3.25-.51-.33-.6-.74-.25-1.25,0-1.93-.02-3.86-.03-5.79,.34-4.27,.58-8.56,1.09-12.82,.23-1.95,.14-4.03,2.01-5.37,2.23-.5,1.88-2.31,1.91-3.88,.07-3.39,.08-6.78,.11-10.17,2.84,.4,2.33,2.75,2.51,4.54,.22,2.13,.2,4.29-.07,5.91,3.5-7.26,8.23-14.13,15.32-19.13-3.85,2.85-8.14,4.98-12.22,7.46-1.2,.73-3.47,1.73-2.52-1.6,7.73-8.06,17.6-12.44,27.84-16.19Z"/>
  <path class="cls-21" d="M223.02,128.72c-.38,.68-.75,1.36-1.13,2.04-9.14-14.44-18.2-28.92-27.46-43.28-2.19-3.4-.44-5.52,1.52-7.85,.42,.47,.85,.94,1.27,1.41,.73,1.03,.48,2.07,.03,3.11,.24,3.66,4,5.16,5.1,8.3,6.9,9.61,12.84,19.84,19.05,29.88,1.17,1.89,2.93,3.79,1.61,6.38Z"/>
  <path class="cls-71" d="M465.05,328.69c.35,1.86,1.22,1.03,1.99,.35,4.68-4.06,10.67-5.77,16.1-8.79-7.83,7.82-15.06,16-19.49,27.53-1.67-6.26,.58-11.48-1.62-16.27-.02-1.31-.04-2.62-.06-3.93,.91,.69,1.12,3.32,3.08,1.1Z"/>
  <path class="cls-6" d="M208.04,232.64c-.03-.33-.04-.66-.01-.99,5.32,1.23,6.66-1.33,7.08-6.28,.92-10.88,2.51-21.71,3.83-32.56,.08-.17,.18-.33,.29-.48,2.1-.09,3.35,.71,3.21,3.01-1.17,10.82-1.79,21.71-3.35,32.49-.29,1.98-.42,3.96-2.01,5.45-3.15,1.73-6.18,1.84-9.02-.64Z"/>
  <path class="cls-75" d="M53.97,437.48c-1.33-1.22-2.78-.51-4.21-.27-6.51,1.11-13.02,1.72-19.87-.2,7.3-2.74,14.9-1.47,22.01-3.36,.73-.03,1.47-.06,2.2-.1,1.08,1.56,2.93,1.12,4.41,1.61,1.77,.59,2.96,1.29,2.5,3.38-2.28-.83-4.94,.91-7.04-1.08Z"/>
  <path class="cls-18" d="M312.95,58.54c-.32-.59-.65-1.19-.97-1.78,3.29-5.73,7.94-7.41,14.04-5.07,1.99-2.14,.42-4.83,1.12-7.17,.58,5.89,1.9,11.61,3.8,17.21-.98,.34-1.94,1.39-2.98,.1,0-1.39-.55-2.58-1.37-3.66-2.83-3.19-5.9-3.2-9.29-.87-1.25,.86-2.44,2.47-4.35,1.24Z"/>
  <path class="cls-111" d="M475.92,525.48c6.96-1.76,14.02-.8,21.05-.87-6.95,1.85-14.03,.66-21.05,.87Z"/>
  <path class="cls-109" d="M416.98,304.6c-.37,.72-.75,1.44-1.12,2.16-1.3-1.62-2.42-3.31-2.37-5.91,2.44,.29,3.08,1.91,3.5,3.75Z"/>
  <path class="cls-108" d="M498.93,368.6c-2.45,.06-4.87,0-7.07-1.56,1.53-1.56,3.32-1.59,5.16-1.39-2.59,3.07,2.25,1.33,1.91,2.94Z"/>
  <path class="cls-111" d="M155.21,338.45c-2.52-11.16-5.28-22.28-7.49-33.51-2.05-10.41-3.09-20.99-3.54-31.61-.13-3.04,.46-5.96,1.54-8.77,1.84-4.8,4.76-7.98,10.43-8.55,10.17-1.01,20.29-.42,30.3,.83,10.26,1.28,20.54,.46,30.8,1.52,6.92,.71,13.86,1.35,20.76,2.3,16.51,4.39,32.44,10.54,48.61,15.96,10.38,3.48,20.67,7.28,30.57,12.05,3.06,1.47,5.73,3.28,7.82,5.95,2.26,2.73,1.98,6.16,2.43,10.04,2.38-2.45,1.85-5.34,2.97-7.55,3.36,13.99-2.14,26.24-13.83,31.26-3.19,1.37-6.57,1.77-9.77,1.49-11.24-.99-22.52-2.01-33.65-3.82-21.27-3.47-40.19-12.43-57.04-25.86-3.77-3.01-7.74-5.79-12.26-7.61-4.54-1.82-6.72-.43-6.84,4.36-.03,1.16-.02,2.36,.23,3.48,5.25,22.89,2.78,46.02,2.16,69.09-.03,1.16-.13,2.33-.15,3.49-.46,23.79-.87,47.58-1.38,71.36-.13,6.15-.73,12.29-.77,18.44-.02,3.48-1.41,4.54-4.75,4.75-6.65,.42-12.72-2.24-19.12-3.08-8.62-1.13-8.29-1.14-8.72-10.22-.79-16.35-1.21-32.73-2.14-49.06-1.07-18.75-3.09-37.46-5.83-56.06-.52-3.54-2.33-6.92-1.31-10.65Z"/>
  <path class="cls-62" d="M94.95,154.68c-1.18-3.36-2.35-6.72-3.53-10.08,1.3-1.61,3.19-2.01,4.97-1.67,7.73,1.5,15.12-1.54,22.74-1.46,7.62,.08,15.16-1.19,22.78-1.36,10.08-.23,20.18-.18,30.2-1.55,6.02,13.51,10.28,27.66,14.9,41.67,6.03,18.28,13.79,35.95,18.98,54.51,1,8.62,.95,8.98-7.93,7.84-22.46-2.87-45-4.93-67.53-7.08-4.29-.41-6.36-2.11-7.9-6.4-8.96-24.9-18.39-49.64-27.66-74.43Z"/>
  <path class="cls-9" d="M277.19,120.56c2.84,5.88,6.86,7.7,14.01,5.79,12.15-3.24,21.84-9.58,26.24-22.23,11.7,4.98,23.29,9.9,34.87,14.85,7.08,3.03,10.79,9.03,13.67,15.72,8.11,19.75,3.79,39.2-1.45,58.61-1.6,5.94-3.61,11.79-3.34,18.07,.12,2.72-1.26,3.41-3.72,3.24-11.49-.79-21.55-5.26-30.76-11.9-.97-.7-1.55-1.61-1.34-2.99,1.39-9.04,.79-18.52,3.06-27.18,3.09-11.8,7.51-23.48,15.2-33.42,.9-1.16,1.75-2.37,2.32-3.76-8.73,6.76-12.51,16.81-16.84,26.53-1.9-1.08-.24-3.1-1.77-4.08-1.63,10.69-2.22,21.47-5.3,31.84-1.66,1.84-3.25,3.67-4.04,6.14-.82,2.57-2.61,3.28-5.06,1.91-5-6.99-9.99-13.99-14.99-20.98-4.89-2.73-5.83-7.87-7.29-12.51-3.69-11.78-8.61-22.98-14.93-33.57-.53-.88-1.12-1.64-2.16-1.91-5.96,3.76-7.22,3.61-11.11-3.13-2.55-4.41-6.56-8.26-6.44-13.94,3.81-3.98,8.22-3.93,12.92-1.93,6.23-.04,7.14,.72,7.85,6.47,.18,1.45,.38,2.89,.39,4.35Z"/>
  <path class="cls-9" d="M221.15,190.56c-2.84-3.87-.37-7.82,.22-11.53,1.6-10.16,3.88-20.22,5.9-30.31,.75-3.75,2.04-5.14,6.75-4.53,8.51,1.09,13.97,4.78,19.41,11.58,6.98,8.73,14.24,17.45,22.7,25.1,6.27,5.67,8.85,14.33,12.7,21.86,2.19,4.27,4,8.73,5.98,13.11,.05,.27,.11,.54,.19,.81,4.62,13.87,8.41,28.02,13.58,41.72,.68,1.79,1.8,5.01-2.58,4.31-12.75-3.67-25.59-6.93-40.12-8.25,6.87-3.28,12.97-5.1,19.18-6.52,3.82-.87,5.14-2.66,2.94-6.24-11.24-.43-22.43-1.38-33.54-3.14-4.26-.67-8.6-.27-12.85-1.14-4.79-.98-5.72-2.21-4.29-6.73,4.27-13.5,6.86-27.35,8.76-41.34,.23-1.72,2.15-3.35-1.5-4.93-2.9-1.26-2.7-6.07-3.03-9.54-.05-1.13,.05-2.29-.22-3.42-2.11,1.1-3.36,2.54-1.92,5.01,.54,4.8,2.46,9.35,2.49,14.22,.04,4.92-1.53,6.59-6.35,5.53-5.03-1.1-10.71-.95-14.4-5.63Z"/>
  <path class="cls-111" d="M134.1,435.64c-2.81,5.49-7.25,2.07-10.98,1.85-3.43-.2-2.02-3.23-2.2-5.11-3.51-37.02-5.31-74.2-11.3-110.98-3.12-19.15-6.04-38.37-7.57-57.73-.75-9.5,10.75-20.48,20-20.03,1.74,2.69,.89,5.81,1.44,8.71,2.2,11.51,3.58,23.16,5.95,34.64,.87,4.22,.87,8.58,.41,12.86-.27,2.54-.11,4.92,.58,7.33,.91,15.52,3.03,30.96,3.81,46.47,.5,9.91,1.54,19.82,1.31,29.78-.06,2.65-.16,5.31,.44,7.93-.21,10.46,1.82,20.88,1.05,31.32-.32,4.36,1.29,9.41-2.97,12.95Z"/>
  <path class="cls-28" d="M295.98,213.65c-3.91-8.01-7.83-16.03-11.74-24.04,.72-2.23,2.18-4.01,3.62-5.78,4.12-5.05,6.09-5.31,11.38-1.53,8.81,12.59,17.62,25.17,26.41,37.78,.95,1.36,1.72,2.84,3.31,3.59,3.39,1.26,3.72,4.91,5.45,6.9-.4-2.86-4.89-4.69-3.15-8.82,2.57,.05,5.09-.63,7.17-1.89,4.89-2.95,10-1.51,15.07-1.4,1.78,.04,2.41,.8,1.77,2.53-4.93,13.21-7.43,27.38-15.54,39.34-6.01,8.86-8.08,8.98-14.79,.51-11.54-14.57-19.71-31.21-28.94-47.19Z"/>
  <path class="cls-60" d="M445.13,488.77c-.39,3.77-2.6,4.74-6.18,4.74-23.81,.01-47.45-2.61-71.13-4.54-6.28-.51-12.63-.04-18.83-1.41-1.78-5.33,1.27-12.27,6.64-15.08,1.36-.11,2.8,.16,3.85,.78,12.04,7.13,25.13,3.73,37.84,3.89,7.93,.1,15.87-.51,23.79,.28,6.55,0,13.11-.02,19.66-.03,3.17-.94,5.14-.39,4.71,3.55-.28,2.59,.34,5.23-.36,7.81Z"/>
  <path class="cls-59" d="M128.96,306.66c-1.96-5.48-.17-11.2-1.05-16.73-1.99-12.37-4.1-24.71-6.3-37.04-.56-3.17-1-6.22,.45-9.24,2.5,.08,4.85,.72,7.04,1.95,1.41,.95,2.89,2.2,3.03,3.8,.67,8.11,2.89,16.37-1.49,24.18-.41,.73-.69,1.51-.94,2.3-.14,.44-.14,.9-.1,.98,.39-1.75,.42-4.43,3.27-4.28,2.61,.14,2.36,2.92,2.58,4.76,.59,5.07-.51,10.23,.6,15.3,.08,11.28-.93,22.67,1.11,33.8,2.27,12.39,3.41,24.96,4.03,37.39,.63,12.45,1.85,25.03,.6,37.62-.7,7.02-1.8,13.99-2.21,21.07-.21,3.76-1.41,7.64-1.8,11.56-.2,1.99-2.26,1.46-3.68,1.59,2.53-9.59,1.02-19.32,.55-28.93-.25-5.09-.4-10.18-.52-15.27,1.31-10.6,.18-21.21-.25-31.79-.72-17.55-3.04-34.99-4.28-52.51-.02-.34-.06-.63-.31-.86-.11,.13-.22,.25-.32,.38Z"/>
  <path class="cls-79" d="M178.11,488.44c4.66,4.18,10.52,6.18,15.99,8.88,3.85,1.51,4.21,4.84,3.43,8.03-.88,3.63-1.79,7.12-.79,10.84-2.82,1.49-5.78,2.15-8.96,1.58-4.82-1.48-9.53,.29-14.26,.65-10.21,.78-20.31,2.78-30.62,2.67-3.98-.04-7.8-1.83-11.81-.84-3.33,.08-3.71-1.96-3.33-4.61,.95-6.64,6.67-10.45,15.57-10.33,.67,0-.17,.09,.47-.07,.23-.06,.17-.59-.01-.94,2.31-3.43,4.45-1.14,6.59,.21,1.77,1.11,2.45,3.6,4.89,3.87,4.26,1.1,6.46-2.4,9.36-4.28,.24-.16-.61-1.05-.9-1.66,2.1-5.63,6.28-9.75,10.26-13.99,1.14-1.22,2.75-.74,4.13,0Z"/>
  <path class="cls-48" d="M352.88,518.93c.14-6.74,.89-7.32,6.86-6.52,22.42,3,44.83,6.29,67.53,5.9,14.13-.24,28.12-2.21,42.15-3.99,8.2-1.04,16.39-1.32,24.2-4.32,.37-.14,1.05,.08,1.38,.37,3.2,2.73,2.36,6.43,1.9,9.78-.42,3.09-3.22,2.15-5.28,2.03-17.81-1-35.62-.57-53.43-.18-4.49,.1-8.99,.23-13.48,.33-22.14,.46-44.28,.88-66.42,1.42-3.88,.09-6.29-.79-5.41-4.82Z"/>
  <path class="cls-69" d="M456.98,370.62c3.45-9.07,6.03-18.49,10.92-26.97,.98-1.71,2.04-3.37,3.06-5.06,3.75,1.37,7.24,3.33,10.87,4.96-8.35,17.65-13.9,36.46-22.31,54.13,3.5-2.64,5.26-6.51,7.48-10.04,1.41-1.61,3.18-.74,4.67-.43,3.17,.64,3.63,2.57,1.19,4.77-3.79,3.42-8.15,6.24-11.13,10.5,3.54-5.04,8.76-8.32,13.3-12.3,2.08-1.82,4.36-.79,6.01,1.31,1.38,.48,2.77,.96,4.94,1.71-8.26,5.77-15.79,11.42-23.73,16.41-3.91,2.46-8.77,.52-13.18,.86-1.73-1.43-1.27-3.16-.86-5.02,1.38-6.2,3.99-11.99,6.31-17.83,4.39-11.08,7.65-22.63,13.41-33.17,.1-.68-1-.47-.34-.36,.16,.03,.2,.19,.08,.46-3.93,9.14-8.19,18.15-10.89,27.77-.32,1.14-.96,2.32-2.35,2.17-1.42-.16-1.91-1.6-1.68-2.65,.86-3.93,.62-8.32,4.22-11.23Z"/>
  <path class="cls-78" d="M369.17,456.7c12.74,1,25.48,2.05,38.23,2.97,8.12,.59,16.26,1.25,24.39,1.35,4.15,.05,4.66,2.07,4.34,5.25-.66,6.5-.79,6.56-7.59,6.51-18.46-.14-36.91-.22-55.37-.41-2.07-.02-4.32,.7-6.23-.8-.91-5.21,.54-10.06,2.22-14.88Z"/>
  <path class="cls-112" d="M427.14,514.62c-2.18,.46-3.23-1.04-3-4.31,.23-3.3,.28-6.69-1.25-9.79-1.21-2.44,.03-2.96,2.12-2.8,5.3,.42,10.6,.8,15.89,1.33,9.81,.97,19.59,.83,29.27-1.13,7.32-1.48,14.8-2,22-4.18,4.45-1.35,5.29,2.36,6.3,5.27,.94,2.73-.82,4.02-3.24,4.5-22.16,4.45-44.44,8.15-68.09,11.12Z"/>
  <path class="cls-14" d="M123.03,465.52c.85-2.6,2.42-1.42,3.9-.75,2.86,2.94,6.85,3.85,10.32,5.69,.98,5.98,2.48,11.91,1.8,18.06-1.3,.37-2.59,.74-3.89,1.11-5.01,2.79-10.64,2.42-16.06,3.15-1.27-.33-2.55-.88-3.86-.69-10.46,1.51-20.92,1.05-31.38,.21-1.29,.04-2.24-.51-2.81-1.68-1.48-3.08,.47-4.99,2.44-6.75,6.13-5.45,12.63-5.92,19.47-1.52,.99,.02,2.15,.51,2.93-.1,6.28-4.99,13.6-8.94,17.15-16.72Z"/>
  <path class="cls-60" d="M409.8,513.65c-16.91-.5-33.65-3.08-50.28-5.64-5.64-.87-1.29-8.56-2.33-13.04-.77-3.31,2.44-2.37,4.15-2.19,7.57,.77,15.13,1.73,22.69,2.62,6.66,.85,13.36,1.16,20.04,1.63,7.62,.54,11.82,5.37,10.5,12.44-.47,2.51-1.29,4.94-4.76,4.18Z"/>
  <path class="cls-29" d="M221.15,190.56c5.49,1.33,10.75,3.48,16.39,4.24,2.16,.29,2.66,.09,2.68-2.43,.06-5.72-2.88-10.96-2.24-16.7-.69-1.31-.63-2.4,1.16-1.99,1.49,.34,1.44,1.97,1.78,2.82,.04-1.4-1.93-3.58,.47-4.84,1.06-.56,.98,1.33,1.5,2.05,.06,3.89,2.02,7.25,2.81,11.13,2.15-.7,.71-2.8,1.99-3.73,.07,.47,.19,.87,.18,1.27-.28,16.76-3.23,33.04-9.23,48.68-1.32,3.44-.71,4.27,2.74,4.55,13.89,1.15,27.63,3.82,41.6,4.28,1.77,.06,3.67,.27,5.02,1.77-.22,.32-.44,.64-.66,.96-1.32,.28-2.63,.6-3.99,.26-3.45-.99-6.93-.96-10.45-.43-1.73,.15-3.44-.02-5.15-.33-4.29-1.29-8.64-1.31-13.01-.51-12.81,.65-25.38-2.62-38.18-2.27-2.55,.07-5.34-.42-7.29-2.61-3.19-.53-1.12-2.64-1.23-4.09,3,0,6.01-.01,9.01-.02,3.58-2.67,7.39-.63,11.07-.44,4.97,.26,6.42-.71,5.83-5.76-.87-7.41-1.88-14.82-4.38-21.93-1.01-2.89-2.16-5.53-5.18-6.94-1.19-.56-2.21-1.51-2.32-3.02-.96-.73-1.91-1.47-2.87-2.21-.03-1.33,.94-1.56,1.93-1.78Z"/>
  <path class="cls-102" d="M443.94,424.53c-7.56,2.27-15.34,1.92-23.04,1.61-15.79-.64-31.58-.48-47.36-.16-2.27,.04-4.78,.54-4.24-2.87,.53-3.31-2.6-8.05,3.32-9.5,.47-.12,.99-.07,1.49-.07,17.62,.04,35.24,.08,52.86,.11,5.05,.89,10.14,.37,15.21,.34,3.08-.02,4.03,1.43,3.09,3.87-.85,2.2-.29,4.57-1.32,6.66Z"/>
  <path class="cls-51" d="M445.91,410.52c-8.25,1.6-12.8-1.76-16.06-9.63-3.77-9.11-9.26-17.51-14-26.21,.09-.82,.53-1.63,.33-2.45-1.23-5.11,1.51-7.8,5.76-9.59,6.73,4.19,12.76,9.12,16.98,15.98,1.57,.79,2.51,2.16,3.02,3.74,1.87,5.78,4.63,11.23,6.45,17.03,1.28,4.08,.97,8.02-2.49,11.14Z"/>
  <path class="cls-41" d="M440,322.6c-1.38-18.57-.69-36.99,4.16-55.31,6.77,18.55,10.43,37.87,13.85,57.25,.48,2.36,1.51,5.06-.84,6.75-2.43,1.75-5.01,.56-7.3-.94-2.01-2.67-2.2-5.94-2.3-9-.31-9.57-2.55-18.89-3.13-28.41-.02,.58,.17,1.14,.24,1.72,1.36,11.02,2.54,22.06,3.75,33.1,.18,2.93-.23,5.66-2.73,7.61-1.08,.85-2.3,1.3-3.71,.86-1.71-.53-1.44-1.97-1.53-3.27-.24-3.44,.55-6.94-.47-10.34Z"/>
  <path class="cls-60" d="M498.88,433.62c.83,4.68-.93,6.21-5.84,6.42-20.42,.9-40.83,2.32-61.24,3.52-3.02,.18-5.95,.76-5.7-4.22,.39-7.73,.32-8.06,5.9-7.99,4.32,.06,8.64,.13,12.96,.2,8.75,1.32,17.54,.03,26.31,.48,7.97,.41,15.95,.86,23.94,.31,1.39-.1,2.63,.3,3.66,1.27Z"/>
  <path class="cls-95" d="M398.38,430.99c7.49,0,14.98,.04,22.46-.02,3.22-.02,4.3,1.09,3.78,4.54-1.29,8.48-1.12,8.72-9.59,8.13-12.94-.9-25.86-2.18-38.79-3.18-2.28-.18-3.42-.62-2.77-3.22,.36-1.42,.37-3,.18-4.46-.3-2.33,.58-2.75,2.78-2.7,7.31,.16,14.63,.06,21.95,.06v.83Z"/>
  <path class="cls-34" d="M419.92,455.69c-16.27-1.01-32.55-2.02-48.82-3.06-1.83-.12-4.63,.55-3.33-2.95,.87-2.36-.83-6.79,4.47-5.87,17.75,3.05,35.79,3.01,53.65,4.89,4.59,.52,9.21,.54,13.82,.86,1.78,.13,3.69-.41,5.19,1.07v-.02c.99,5.4,.99,5.5-4.1,5.42-6.96-.12-13.92,.48-20.87-.34Z"/>
  <path class="cls-51" d="M439.98,377.58c-2.93-7.52-7.58-14.24-10.05-21.97,1.63-1.29,3.37-2.41,5.23-3.33,3.2,1.95,2.83,5.93,4.71,8.2-.74-1.96-2.36-4.01-2.36-6.65,1.39-2.44,3.68-3.47,6.29-4,3.57,4.88,5.31,10.72,8.27,16.26,1.76-2.65-1.87-4.36-.34-6.92,2.33,3.27,3.71,6.66,4.27,10.42-1.75,6.82-3.61,13.61-3.37,20.76,.07,1.98-.67,3.9-1.29,5.78-.43,1.31-1.17,2.5-2.71,2.49-1.55,0-1.53-1.53-1.92-2.53-2.43-6.1-5.17-12.09-6.72-18.51Z"/>
  <path class="cls-37" d="M325,294.62c-15.66-8.57-32.48-14.31-49.35-19.84-12.75-4.18-25.33-8.77-37.64-14.12,8.91,.7,17.51,2.81,26.11,6.01-.19-2.66-3.18-2.18-3.63-4.7,9.12,2.29,17.82,4.79,26.18,8.22,9.34,3.83,18.62,7.77,27.47,12.77,5.07,2.86,8.41,6.68,10.86,11.65Z"/>
  <path class="cls-22" d="M500.83,471.64c4.59,9.14,2.6,12.65-7.11,13.98-10.96,1.5-21.84,3.59-32.75,5.43-.82,.14-1.62,.36-2.44,.44q-10.78,1.06-10.45-10.04c3.8,1.17,7.41,.33,11.11-.71,12.77-3.57,26.15-4.3,38.87-8.13,.94-.28,1.91-.43,2.77-.97Z"/>
  <path class="cls-87" d="M144.12,504.52c1.5,.18,2.85,.68,4.21,2.12-3.05,0-5.82-.16-8.56,.03-6,.41-9.89,3.59-11.12,8.77-.4,1.7-.65,3.28,1.4,4.13,.97,.17,1.38,.89,1.7,1.71,.44,2.48,2.8,1.54,4.19,2.33,8.66,1.45,17.19-.65,25.77-.96,6.75-.24,13.46-1.3,20.23-1.74,6.14-.39,12.5-.37,18.17-3.51,2.23-4.82,1.81-9.75,.61-14.71-.18-2.49-3.79-2.42-3.78-5.05,2.8-.04,5.68,.02,5.16-4.14,3.5,7.32,3.22,15.14,2.9,22.93-.16,3.86-2.85,5.45-6.28,5.9-13.47,1.78-26.98,3.24-40.53,4.36-6.47,.53-12.91,.86-19.39,.8-6.41-.05-10.57-2.41-11.65-6.57-1.58-6.06,.73-11.77,6.59-14.7,4.95-2.48,9.57-5.34,13.67-9.02,1.05-.95,3.44-1.52,1.63-3.78,.53-2.62,5.35-2.33,4.15-6.12,3.98,0,12.43-6.58,13.59-10.59,.41-1.41,.82-2.83,1.23-4.24,.37,1.35-.33,2.98,1.05,4.06,1.1,1.78,3.09,2.25,4.69,3.31,2.05,1.36,4.86,2.29,4.32,5.68-.33,.66-.66,1.33-.99,1.99-.38,.33-.79,.41-1.26,.2-1.28-2.18-3.16-3.68-5.36-4.72,.65,1.53,4.9,.74,2.81,4.19-.82,.29-2.13-.26-1.87,1.63,.15,1.12-1.14,1.44-2.23,1.38-1.59-.29-2.42-1.65-3.7-2.64,1.51,1.47,3.17,2.68,3.22,4.93-1.15,2.85-3.04,1.63-4.86,.89-1.39-.57-2.14-2.78-4.19-1.63-.82,.62-1.78,1-2.59,1.59-1.11,1.26,.33,2.26,.35,3.39-.11,.74-.55,1.21-1.19,1.47-.12,.03-.28,.07-.43,.11-.15,.03-.3,.06-.45,.08,1.45,1.81,3.58,3.35,2.41,6.18-.36,.64-.88,1.08-1.58,1.31-1.9,.15-2.36-1.59-3.37-2.61-1.66-1.68-3.47-2.54-5.77-1.3-1.27,.5-3.35,.07-2.9,2.54Z"/>
  <path class="cls-72" d="M443.79,349.82c-1.28,2.29-3.37,3.33-5.84,3.79-2.73-.49-2.41-3.18-3.32-4.87-4.11-7.57-8.94-14.61-14.72-21.01,5.52,6.23,10.5,12.84,14.17,20.34,.68,1.38,2.25,2.65,.97,4.48-.19,3.56-2.4,3.73-5.12,3.05-7.25-16.62-18.26-30.7-30.01-44.38,6.41,2.2,11.72,6.15,17.12,9.87,9.07,6.24,17.91,12.78,23.6,22.56,1.16,1.99,2.1,4.1,3.15,6.16Z"/>
  <path class="cls-75" d="M200.02,468.48c-2.08,6.52-1.43,7.02,5.21,6.33,14.8-1.55,29.53-3.61,44.42-4.58,11.48-.75,22.82,.25,34.22,.12-1,3.65-4.08,4.06-7.03,4.14-10.59,.3-21.16,.05-31.77,.84-6.98,.52-13.2,3.6-20.03,4.22-7.47,1.85-15.19,1.74-22.75,2.93-1.15,.18-2.29-.12-3.12-1.1-.44-2.9-.96-5.79-1.31-8.7-.21-1.79-.35-3.72,2.15-4.21Z"/>
  <path class="cls-82" d="M500.83,471.64c.18,1.52-.25,2.48-1.96,2.82-10.03,1.97-20.01,4.22-30.08,5.94-5.09,.87-9.95,2.42-14.89,3.74-2.95,.79-4.76,.09-5.83-2.69-1.6-3.94-.76-5.53,3.96-6.21,13-1.88,25.91-4.41,38.8-6.95,4.19-.82,6.98,1.31,9.99,3.35Z"/>
  <path class="cls-88" d="M268.18,240.5c1.61,.07,3.22,.13,4.84,.2,3.67,1.15,7.51-.23,11.19,.77,1.2-.04,2.41-.09,3.14,1.15-.87,5.72-5.98,3.83-8.66,3.73-21.37-.77-42.71-2.32-64.08-3.21-4.99-.21-6.63-1.7-5.34-6.41,15.25,1,30.5,2,45.75,2.99,4.34,1.13,8.82-.29,13.16,.77Z"/>
  <path class="cls-43" d="M440,322.6c1.86,2.69,.57,5.76,1.02,8.61,.23,1.46-.8,3.75,1.61,3.98,1.97,.19,3.24-1.6,3.88-3.27,.51-1.32,.35-2.9,.49-4.36,2.61,.19,1.79,2.26,1.93,3.7,.22,2.34-.24,4.75,.63,7.02,.38,.61,.87-.47,.38-.02-1.24,1.13-1.21-5.26,.04-8.68,.48,.03,.98,.01,1.45,.11q6.36,1.36,6.58-5.16c2.4,6.84,1.75,13.98,2.01,21.02-.43,6.16,.65,12.59-3.1,18.19-1.98-6.57-5.56-12.42-9.99-17.4-6.24-7.01-7.87-14.88-6.92-23.75Z"/>
  <path class="cls-13" d="M494.88,460.65c.48,2.87-1.55,3.28-3.59,3.62-16.5,2.71-33.01,5.4-49.51,8.13-2.62,.43-4.28,.6-3.82-3.23,.87-7.28,.59-7.33,8.06-7.58,1.99-.07,3.98-.03,5.97-.04,11.74-.43,23.54,.73,35.24-1.17,2.5-.41,5.16-1.23,7.66,.28Z"/>
  <path class="cls-54" d="M455.16,455.58c-1.5,0-3-.09-4.49,.02-2.85,.21-3.81-1.19-3.84-3.87-.03-2.54,.53-4.08,3.53-4.15,7.49-.17,14.94-.22,22.44-1.34,3.53-.53,7.69,1.19,11.67,1.26,2.53,.04,5.02-.02,7.31-1.17,1.41-.71,3.01-2.5,3.84,.25,.63,2.1,1.44,4.69-1.3,6.19-.83,.46-1.91,.61-2.88,.66-12.09,.7-24.19,1.35-36.28,2.01,0,.04,0,.09,0,.13Z"/>
  <path class="cls-53" d="M443.94,424.53c0-.65-.06-1.31-.02-1.96,.45-7.87,.45-7.78-7.81-8-3.05-.08-6.24,.73-9.15-.9,9.11,0,18.21-.2,27.31,.56,11.6,.97,23.18-.87,34.79-.51,3.28,.1,6.34,.38,7.99,3.79,.38,4.8-3.43,4.72-6.32,4.89-6.93,.4-13.9,.11-20.85,.23-4.28,.07-8.57-.33-12.85,.65-8.27,1.88-8.73,1.48-10.05-6.71-2.93,1.93-.55,5.88-3.05,7.97Z"/>
  <path class="cls-73" d="M167.91,465.77c-4.23-1.73-3.55-5.75-3.78-8.99-.91-13.09-1.43-26.2-2.19-39.3-1.38-23.87-3.91-47.64-7.92-71.31,0,2.47,0,4.94,0,7.41-.81-5.14-3.17-10.4,1.18-15.13,3.92,10.89,4.37,22.39,5.7,33.69,2.81,23.73,3.75,47.59,4.25,71.47,.08,3.64,1,7.3,.73,10.89-.43,5.69,.7,9.69,7.32,9.95-1.78,.37-3.87-.48-5.3,1.32Z"/>
  <path class="cls-81" d="M178.07,485.54c-1.66-2.81-4.47-4.21-7.28-5.33-2.03-.81-2.05-2.01-1.74-3.65,.24-1.09,.73-2.2,.68-3.27-.36-6.86,3.31-5.56,7.31-3.71,5.3,8.21,14.93,11.63,21,18.98,.87,2.11,2.99,4.85,1.58,6.37-1.84,1.97-4.63-.31-6.79-1.22-5.19-2.19-10.18-4.81-14.76-8.15Z"/>
  <path class="cls-17" d="M322.56,281.13c-20.2-9.02-40.85-16.34-61.44-23.93,10.61,.21,20.6,3.21,30.55,6.29,6.99,2.16,13.82,4.86,20.86,6.81,5.73,1.59,5.77,7.91,10.02,10.83Z"/>
  <path class="cls-65" d="M202.1,518.55c-4.75,3.29-10.42,3.15-15.71,3.49-15.36,.96-30.61,3.28-46.03,3.35-2.15,.01-4.32,.12-6.35-.84,.35-2.97,2.75-2.48,4.57-2.45,17.83,.24,35.24-4.19,53.01-4.67,1.87-.05,3.95-.48,5.4-2.08-3.72-1.23-5.64-2.3-2.14-6.61,2.57-3.16,2.17-7.77-.75-11.41,.94,.11,1.89,.21,2.83,.32,1.61,1.43,5.46-.1,5.13,3.89,.78,5.67,.74,11.35,.03,17.02Z"/>
  <path class="cls-38" d="M439.98,377.58c3.91,6.2,5.06,13.58,8.68,20.56,2.89-5.46,1.94-11.2,3.26-16.46,1.04-4.15,1.46-8.48,4.06-12.1,.32,0,.64-.01,.96-.04,.01,.36,.02,.72,.04,1.08-.61,4.31-2.9,8.3-2.48,12.88,4.21-11.29,9.02-22.27,15.35-32.71-1.09,2.87-2.06,5.8-3.3,8.6-6.64,15.03-10.81,30.95-16.77,46.23-.61,1.57-.93,3.18-.7,4.87-1.05,.01-2.1,.02-3.16,.04,3.37-5.2,1.35-10.19-.59-15.19-2.16-5.56-4.26-11.14-6.39-16.71,.35-.35,.69-.69,1.04-1.04Z"/>
  <path class="cls-47" d="M299.24,182.3c-.68,.88-1.4,.66-2.05,.01-2.84-2.78-4.92-1.14-7.03,1.08-1.97,2.07-2.65,5.38-5.91,6.22-2.36-3.67-4.73-7.35-7.09-11.02,2.96-6.03,7.76-10.36,13.06-14.24,3.32,3.96,4.48,8.98,6.64,13.5,.8,1.48,1.59,2.97,2.39,4.45Z"/>
  <path class="cls-80" d="M136.04,292.62c-1.88-2.9-.6-6.14-.97-9.2-.12-.98-.04-1.99-.05-2.98-.04-2.49,.1-5.79-2.1-6.72-2.44-1.03-1.9,3.34-4.35,4.09,3.55-10.78,3.84-21.49,.53-32.22,6.25,2.24,10.14,6.49,11.51,13.09,1.34,6.48,.8,7.58-5.64,9.96,.06,1.53,3.58-.41,2.45,2.74-2.47,6.89-.93,14.16-1.38,21.25Z"/>
  <path class="cls-27" d="M446.99,416.56q2.34,6.68,9.52,4.69c4.58-1.27,9.26-.54,13.88-.63,6.65-.14,13.3,.05,19.95-.09,2.55-.06,5.47,.18,6.71-3.02,1.17,4.86,0,6.86-4.35,7.03-14.39,.58-28.78,1.05-43.17,1.65-2.1,.09-2.6-.92-2.59-2.66,.02-2.32,.04-4.64,.05-6.97Z"/>
  <path class="cls-88" d="M129.18,463.47c-1.84-4.95-7.16-8.69-5.23-14.96,1.16-1.83-.86-5.74,3.16-5.58,3.64,.14,6.53,1.44,6.81,6.1,.27,4.43,1.48,8.79,2.12,13.21,.19,1.32,1.88,2.86,.07,4.01-1.62,1.03-3.19-.22-4.63-.92-.86-.42-1.54-1.22-2.3-1.86Z"/>
  <path class="cls-12" d="M409.8,513.65c3.88-1.29,3.48-4.59,2.99-7.41-.57-3.33-1.28-7.03-5.59-7.81-5.82-1.05-11.67-1.81-17.59-1.91-1.9-.03-4.01,.65-5.58-1.12,11.15-.3,22.14,1.98,33.26,2.09,1.86,.02,2.5,1.04,2.9,2.72,.88,3.76,.96,7.56,1.03,11.38,.04,2.15-1.06,3.02-3.09,2.88-2.78-.2-5.65,.46-8.33-.82Z"/>
  <path class="cls-57" d="M499.94,387.59c.15,.99-3.02,2.57-.3,2.72,9.5,.52,9.08,8.59,11.84,14.37-5.93-5.66-13.52-8.32-20.55-11.93-.99-.44-1.98-.88-2.96-1.33-.95-.43-1.78-1.05-1.4-2.2,.58-1.72,1.99-1.29,3.28-1.04-2.26-1.16-1.75-2.77-.7-4.45,.17-.27,.45-.46,.72-.66,4.38-.78,7.75,.69,10.07,4.51Z"/>
  <path class="cls-15" d="M421.95,362.64c-3.93,3.05-3.43,8.35-6.09,12.04-4.91-7.51-8.18-15.94-13.31-23.44,6.97,3.15,13.89,6.09,19.4,11.4Z"/>
  <path class="cls-94" d="M498.88,433.62c-10.77,2.06-21.53,.56-32.23-.52-5.49-.55-10.95-.34-16.41-.65-1.78-.1-3.69,.46-5.27-.89,16.28-.29,32.56-.79,48.72-2.95,4.03-.54,5.6,1.13,5.19,5.01Z"/>
  <path class="cls-50" d="M156.11,505.19c.07-.29,.25-.5,.52-.63,1.55-.91,2-2.06,.8-3.6-.77-.98-2.06-1.75-1.52-3.33,.37-.35,.75-.69,1.12-1.04,1.74-2.11-1.08-3.2-1.11-4.91,1.02-.28,2.03-.55,3.05-.83,4.49,.31,6.26,2.96,5.11,7.59,1.14-2.39,3.43-3.79,4.87-5.91,.51-.97-.45-2.1,.31-3.05,.25-.56-.65-3.36-1.47-4.48,2.31-1.11,3.36,1.89,5.36,1.61,.68,.82,1.94-.09,2.58,.87,.45,.02,.9,.03,1.35,.05,.35,.31,.69,.61,1.04,.92-2.56-.25-3.95,1.56-5.3,3.21-2.95,3.59-5.76,7.29-8.63,10.94-1.67,4.1-5,6.04-9.09,6.98-1.54,.86-2.22,.66-3.33-1.11-1.59-2.54-3.39-6.02-7.64-3.94-1.45-1.57-1.22-1.95,2.31-3.77,2.85,.19,5.18,1.41,7.19,3.41,.63,.63,.97,2.41,2.5,1.03Z"/>
  <path class="cls-69" d="M489.96,383.61c-.84,2.37-.87,4.43,1.98,4.65-.17,3.23-5.9-3.01-3.96,3.17-1.65-.31-3.3-.62-4.95-.94-.29-.17-.6-.37-.91-.35-1.4,.06-3.05-.05-3.09-1.69-.05-2.11,1.91-1.16,3.05-1.35,.42-.07,.89-.14,1.33,0,.67,.04-.35,.77-.05,.17,.07-.15-.04-.22-.34-.25-3.62-.31-7.23,.75-10.86,.04-1.94-.38-4.21-.42-3.18-3.49,.69-1.33,1.37-2.66,2.06-4,.84-.84,1.78-1.46,3.01-1.48,4.5,.2,8.78,1.51,13.08,2.68,1.35,.37,3.02,.76,2.83,2.82Z"/>
  <path class="cls-31" d="M81.03,490.62c.7,.28,1.41,.57,2.11,.85,7.34,1.39,14.76,.99,22.16,1.09,4.6,.06,8.99-2,13.64-1.19,5.45-.16,10.7-2.11,16.21-1.75,1.04,.63,2.08,1.26,3.12,1.89-.16,.21-.32,.42-.47,.63-9.31,1.41-18.56,3.39-28.04,3.33-1.08,0-.2,1-.78,1.19-6.88,1.44-13.73,1.23-20.61,.04-2.1-.36-4.04-1.58-6.28-1.18-2.14-.48-1.09-2.72-2.11-3.82,.35-.37,.7-.73,1.06-1.1Z"/>
  <path class="cls-17" d="M421.11,477.43c-15.71,.37-31.42,.85-47.13,1.06-6.72,.09-12.94-2.33-19.02-4.98,1.76-3.96,5.5-3.99,8.76-3.66,3.39,.35,.63,3.18,1.1,4.81,3.04,2.19,6.58,2,10.03,2.02,13.63,.07,27.26,.05,40.89,.09,1.8,0,3.67-.31,5.38,.64Z"/>
  <path class="cls-64" d="M306.01,262.67c3.21-.93,1.63-2.72,1.02-4.63-4.37-13.69-9.76-27.09-12.02-41.4,3.92,5.71,5.41,12.37,7.11,18.89,2.14,8.17,6.18,15.66,8.11,23.9,1.11,4.78-.56,5.08-4.21,3.24Z"/>
  <path class="cls-87" d="M82.09,495.54c2.08-1.98,4.07,0,6.03,.27,7.03,.95,14.01,1.38,21.01-.17,8.23-1.65,16.64-1.82,24.91-3.06,1.31-.2,2.65-.12,3.79-.95,0,0,.45-.1,.45-.1,1.17,1.12,.14,2.07-.23,3.08-4.89,1.72-10.07,1.96-15.11,2.32-11.38,.8-22.79,2.93-34.23,.73-2.26-.43-4.42-1.4-6.62-2.11Z"/>
  <path class="cls-84" d="M296.85,177.85c-3.7-3.73-4.58-8.88-6.73-13.38-2.8-1.61-2.9-4.69-3.86-7.26-1.1-2.96-2.41-5.83-3.57-8.76-2.57-7.06-6.47-13.37-10.86-19.42-.56-1.88,1.17-1.67,2.05-2.23,5.75,4.68,7.84,11.66,10.91,17.94,3.19,6.52,5.64,13.37,7.74,20.36,1.22,4.05,3.57,7.76,5.41,11.63-.37,.37-.73,.75-1.1,1.12Z"/>
  <path class="cls-72" d="M222.2,248.63h35.55c-11.66,4.44-23.36,5.59-35.55,0Z"/>
  <path class="cls-26" d="M468.98,383.58c.42,2.36,2.29,2.11,3.89,2,4.02-.27,7.87,.71,11.82,1.69-1.53,.19-3.06,.38-4.66,.58-.11,2.23,2.42,1.32,2.98,2.63-.66,.34-1.31,.68-1.97,1.01-3.45-1.32-6.15-.75-8.87,2.13-3.32,3.53-7.28,6.45-11.83,10.38,2.14-5.99,7.14-7.73,10.08-11.37,.89-1.1,3.26-1.21,2.86-3.01-.41-1.84-2.61-.76-3.89-1.4-.72-.36-1.6-.4-2.4-.59,.11-1.62,.7-3,1.97-4.06Z"/>
  <path class="cls-66" d="M494.88,460.65c-11.51,1.52-23.05,2.87-34.66,1.24-2.77-.39-5.58,1.45-8.24-.36,9.66-2.01,19.58-.04,29.27-1.91,3.57-.69,7.27-.69,10.83-1.39,2.37-.46,3.14,.13,2.8,2.41Z"/>
  <path class="cls-7" d="M364.82,474.67c-.77-5.16-3.52-5.48-9.86-1.16-4.48,3.62-5.86,8.56-5.98,14.04-.3,.62-.6,1.25-.9,1.87-2.57-3.88-.86-7.43,.87-10.95,.86-1.73,1.84-3.4,2.76-5.1,2.1-2.65,5.14-3.73,8.23-4.03,4.42-.42,6.31-2.58,6.62-6.86,.19-2.63,.86-5.22,.29-7.87,.77,.7,1.53,1.4,2.3,2.09-.74,4.96-1.48,9.92-2.22,14.88-.71,1.03-1.42,2.06-2.13,3.09Z"/>
  <path class="cls-103" d="M198.04,488.55c-7.89-5.35-16.41-9.99-21-18.98,1.67,.03,2.86,1,3.64,2.3,2.59,4.35,6.58,6.94,10.98,9.02,3.35,1.58,5.8,3.82,6.38,7.66Z"/>
  <path class="cls-70" d="M199.18,481.4c8.62-.61,17.24-1.23,25.86-1.84-4.05,3.46-9.23,1.68-13.78,2.92-2.97,.81-6.16,.83-9.26,1.18-1.16,.13-1.72,.82-1.95,1.88-1.31-1.16-.88-2.7-.88-4.14Z"/>
  <path class="cls-43" d="M312.94,197.71c2.48,.13,4.09-1.12,4.63-3.41,.6-2.53,2.26-3.79,4.47-4.64-2.7,3.97-2.38,9.01-4.53,13.29-2.41-1.19-3.46-3.25-4.57-5.24Z"/>
  <path class="cls-77" d="M139.04,488.52c-1.01-5.98-2.4-11.92-1.8-18.06,3.45,3.94,2.58,8.83,2.75,13.42,.05,1.43,2.68,3.85-.96,4.64Z"/>
  <path class="cls-54" d="M419.92,455.69c6.72-.01,13.45-.24,20.15,.05,4.04,.18,5.36-1.4,4.81-5.13,1.95,4.92,1.38,6.1-3.47,5.97-7.17-.19-14.39,.84-21.49-.89Z"/>
  <path class="cls-18" d="M331.25,221.75c.17,3.48,3.33,5.53,4.18,8.71,.45,1.69,1.11,3.33,.71,5.44-2.39-4.08-4.79-8.15-7.18-12.23,.76-.64,1.53-1.28,2.29-1.92Z"/>
  <path class="cls-54" d="M444.89,450.63c-6.4,0-12.74-.53-19-1.94,5.08-.03,10.15-.09,15.23-.08,1.56,0,3.46-.42,3.77,2.01Z"/>
  <path class="cls-82" d="M445.13,488.77c-.06-2.31-.29-4.62-.13-6.92,.22-3.17-1.05-4.64-4.22-4.45,3.48-1.85,5.33-1.01,5.23,3.13-.07,2.77,.7,5.62-.87,8.23Z"/>
  <path class="cls-63" d="M225.99,511.01c6.97-1.53,13.94-3.07,20.91-4.6,.1,.45,.2,.9,.31,1.34-6.72,2.77-13.84,3.87-21,4.79-.07-.51-.14-1.02-.21-1.54Z"/>
  <path class="cls-101" d="M105.32,527.89h21.88c-5.39,2.12-16.66,2.41-21.88,0Z"/>
  <path class="cls-87" d="M207.09,499.43c3.89-.92,7.72-2.65,13.13-1.23-5.12,1.37-8.95,2.68-13.13,1.23Z"/>
  <path class="cls-54" d="M217.27,517.32c-3.22,3.78-6.69,3.3-10.23,2.59,2.88-1.81,6.09-2.35,10.23-2.59Z"/>
  <path class="cls-3" d="M64.89,495.05c4.09,.31,7.23,.55,10.37,.78-.04,.52-.08,1.03-.12,1.55-3.16-.01-6.41,1.17-10.24-2.33Z"/>
  <path class="cls-5" d="M303.87,58.45c-4.18,7.37-4.81,14.99-1.02,22.63,2.08,4.2-2.49,5.5-3.08,8.47-2.08,6.52-17.24,18.21-23.89,18.41-.68,.02-1.27-.35-1.92-.49-5.08,1.08-7.89-1.23-10.11-5.75-2.94-5.96-5.99-11.77-7.96-18.21-1.11-3.62-.45-4.57,2.9-4.64,1.42,.7,.87,1.91,.79,3.01-.2,2.7,1.04,3.98,3.39,3.81-3.96-.7-3.56-3.52-2.59-6.6,.77-3.65,1.33-7.32,1.25-11.07,.35-2.9,2.14-4.37,4.9-4.43,2.91-.06,3.85,1.94,3.96,4.5,1.31,6.67,4.17,8.31,10.84,6.18,1.11-.83,1.85-1.97,2.12-3.27,1.97-9.63,10.11-11.02,17.61-13.27,.96,.17,2.15-.54,2.82,.73Z"/>
  <path class="cls-72" d="M326.01,51.69c-5.36-.2-9.98,1.64-14.04,5.07-2.35-1.43-1.74-4.13-2.66-6.16-4.55-9.98-9.6-19.65-17.48-27.52-1.31-1.31-2.68-2.49-4.68-2.48-.58-4.3,4.77-8.96,10.15-8.75,.95,.04,1.88,.59,2.83,0,3.84-.69,6.58,1.22,9.35,3.58,10.18,8.68,13.25,20.65,15.58,33,.21,1.11,.63,2.18,.95,3.27Z"/>
  <path class="cls-5" d="M252.17,63.57c-1.49-5.21-.46-10.6-1.09-15.86,.04-7.33,.74-7.82,7.52-5.89,8.72,2.49,17.56,3.57,26.64,2.23,4.16-.61,7.79-2.43,11.35-4.86,1.24,5.87-6.85,12.33,2.08,16.69,1.68,1.13,.57,2.02-.39,2.57-4.05,2.29-8.25,4.29-12.44,6.3-2.12,1.02-8.48-2.68-8.87-4.91-.29-1.66,1.03-1.79,1.9-2.08-3.1-.3-6.15-.19-7.11,4.04-.21,.94-1.26,1.76-2.26,1.75-3.44-.03-6.19,2.36-9.55,2.53-1.54-.03-2.94-.48-4.2-1.35-.59-.47-.98-1.05-1.02-1.82,.33-1.18,1.29-1.66,2.25-2.11-.65,.09-1.19,.57-1.83,.82-1.25,.25-1.11,2.61-2.96,1.95Z"/>
  <path class="cls-16" d="M282.08,19.61c-.73-3.8-3.71-1.38-5.59-2.01-5.17-1.72-10.38-3.35-16.65-5.36,10.2-6.07,19.51-11.38,31.15-8.71,2.34,.54,4.59,1.28,5.03,4.16,.46,1.83-1.02,2.34-2.15,2.73-5,1.72-8.76,4.97-11.79,9.18Z"/>
  <path class="cls-42" d="M312.95,58.54c1.57-1.15,3.03-2.51,4.74-3.4,4.11-2.15,7.83-2.08,10.36,2.54,.14,.33,.24,.84,.06,.91-6.32,2.29-9.26,7.9-12.95,12.85-1.41,1.89-3.21,5.05-6.06,1.21-.67-5.24,1-9.83,3.86-14.1Z"/>
  <path class="cls-19" d="M260.04,64.81c2.9,.16,5.53-1.02,8.14-1.94,1.27-.45,4.51-.85,1.66-3.81-1.11-1.15,.44-2.05,1.61-2.31,4.61-1.02,9.07-.95,13.52,2.02-2.53,1.73-4.82-.15-7.78,.86,3.65,.75,5.3,5.39,8.42,3.84,4.46-2.22,10.24-2.49,13.06-7.58,.79,.61,1.59,1.23,2.38,1.84-1.68,1-3.33,2.07-5.06,2.99-5.17,2.75-11.56,4.24-11.54,12.06,0,1.19-1.19,2.29-2.46,2.89-1,.83-1.74,.48-2.33-.52-.27-1.91,1.08-3.4,1.32-5.18,.37-2.74-.73-5.08-2.97-6.27-2.13-1.13-4.54-.91-5.61,2-1.16,1.25-.65,3.91-3.29,3.93-1.22-1.51,1.04-4.98-2.34-4.99-1.93,0-4.15,1.18-3.78,4.05-2.61-.05-3.02-1.78-2.96-3.88Z"/>
  <path class="cls-112" d="M309.09,72.64c2.48,1.7,3.45-.26,4.61-1.87,3.85-5.38,8.21-10.21,14.34-13.09,1.13,1.41,1.32,2.8-.09,4.16-4.43-2.15-6.13,1.09-7.4,4.15-1.43,3.45-3.43,7.76,1.03,10.16,3.4,1.83,1.71,2.7,.16,3.94-3.76,3.01-8.61,2.02-10.93-2.32-.84-1.57-1.16-3.41-1.72-5.12Z"/>
  <path class="cls-92" d="M309.87,81.76c-2.35,1.76-4.43,1.07-5.68-2.29-1.82-4.91-1.67-9.99-.52-15.04,.36-1.6,.83-3.17,1.25-4.76,1.16-1.02,.68-4.25,3.32-3.1,2.25,.98,1.73,3.05,.82,5.08-3.05,6.8-3.52,13.57,.8,20.12Z"/>
  <path class="cls-62" d="M282.08,19.61c-.76-3.41,1.31-5.35,3.84-6.78,3.28-1.86,6.72-3.44,10.09-5.14,2.83,.15,5.74-.63,9.17,.7-2.35,2.07-5.01,1.51-7.04,2.53-4.94,2.52-9.96,4.92-13.26,9.69-1.18,.35-2.05-.19-2.81-1.01Z"/>
  <path class="cls-56" d="M321.8,70.11c.52-2.82,.52-6.3,4.23-6.88,1.96-.3,3.42,1.67,2.83,3.72-.85,2.99-.74,7.2-5.03,7.51-2.54,.19-1.74-2.61-2.03-4.36Z"/>
  <path class="cls-2" d="M284.89,20.62c2.49-5.87,7.55-8.22,13.26-9.69,.66,.31,1.33,.61,1.99,.92-3.43,1.36-7.18,2.01-10.07,4.54-1.31,1.15-2.96,2.11-2.91,4.21-.75,0-1.51,.02-2.26,.03Z"/>
  <path class="cls-108" d="M473.97,379.58c-.98,0-1.96,0-2.94,.01-.03-4.23,2.83-7.38,4.24-11.07,2.49-6.49,4.74-13.13,8.51-19.07,8.27,.47,16.5-.22,24.73-.79,.99-.07,1.99-.04,2.98,.09,2.3,.29,5.32,.39,5.31,3.27-.01,2.24-2.89,2.25-4.82,2.53-1.8,.26-3.59,.84-5.4,.78-3.7-.12-5.47,1.65-5.66,5.23-6.88,2.12-12.59,7.12-19.95,8.07-1.12,.14-1.79,.76-1.95,1.89-.09,1.09-.03,1.89,1.52,1.76,3.3-.28,6.18,1.23,8.99,2.62,1.65,.81,3.88,1.88,1.87,4.47-3.07,1.51-6.16,.14-9.22,0-2.76-.13-5.49-.73-8.22,.2Z"/>
  <path class="cls-15" d="M500.93,360.57c-3.25-5.17-2.49-6.6,3.37-6.99,3.89-.26,7.75-.89,11.61-1.87-4.89-1.52-9.83-1.11-14.84-.72-5.81,.46-11.83,2.42-17.28-1.54,1.42-4.72,5.3-5.62,9.41-5.74,5.15-.15,10.21,.9,15.23,1.89,7.27,1.44,14.52,3.05,22.99,4.84-10.3,5.1-20.56,7.16-30.49,10.12Z"/>
  <path class="cls-72" d="M481.83,343.56c-4.82,.97-8.13-1.37-10.87-4.96,6.12-10.17,13.51-19.1,24.14-24.89,3.32,1.36,.6,3.01,0,4.19-4.33,8.6-8.83,17.11-13.27,25.65Z"/>
  <path class="cls-20" d="M503.93,373.61c8.77,4.45,17.5,8.94,24.22,16.74-8.98-2.08-18.62,1.31-27.06-3.95-1.64-.35-3.15-1.02-4.6-1.84-1.09-.62-2.03-1.46-1.54-2.74,.49-1.26,1.84-1.38,3.01-1.12,1.78,.4,3.48,1.08,5.22,1.66-1.14-.52-2.51-.71-3.06-2.11-.38-3.16-.09-5.93,3.81-6.63Z"/>
  <path class="cls-43" d="M503.93,373.61c-1.77,1.97-2.96,4.19-2.94,6.92-3.33,.77-6.55,1.07-9.03-2-4.64-4-9.89-5.84-16.27-3.74,.51-2.61,2-3.37,3.34-4.26,8.56-1.06,17-1.21,24.9,3.08Z"/>
  <path class="cls-22" d="M491.96,378.53c3.01,.67,6.02,1.33,9.03,2,2.38,.97,4.76,1.94,7.14,2.91-.07,.27-.15,.53-.22,.8-3.97-.84-7.95-1.68-11.92-2.52l-.26,.67c1.78,1.33,3.57,2.67,5.35,4-.38,.4-.77,.8-1.15,1.19-3.23-1.57-6.38-3.33-9.98-3.98-5.25-1.65-10.47-3.41-15.99-4.03,5.81-3.64,11.97-1.16,17.99-1.04Z"/>
  <path class="cls-98" d="M53.97,437.48c2.32,.52,5.15-2.27,7.04,1.08,.59,16.3-1.66,32.47-2.2,48.72-.08,2.57-1.6,3.47-3.79,3.73-4.94,.57-9.88,1.09-14.83,1.63-3.27,.9-3.29-1.58-3.14-3.44,.75-9.04,.79-18.12,1.46-27.16,.26-3.45,.46-6.9,.59-10.36,.12-3.02,.48-5.96,2.98-8.1,5.37-.88,11.01-.52,16.95-3.59-4.59-.95-8.22,.22-11.95-.68,2.29-.61,4.58-1.22,6.88-1.82Z"/>
  <path class="cls-45" d="M42.1,443.57c-2.15,15.43-1.41,31.08-3.39,46.52-.19,1.49,.13,2.2,1.49,2.55-6.02,.62-11.59-1.69-17.33-2.82-1.55-.3-1.54-1.93-1.42-3.34,1.14-13.63,.61-27.28,.49-40.92-.03-3.44,.34-4.86,4.33-3.55,5.08,1.66,10.51,1.41,15.83,1.55Z"/>
  <path class="cls-91" d="M172.1,138.57c-3,3.77-7.44,2.67-11.25,2.95-6.56,.48-13.18-.02-19.76,.18-12.2,.39-24.37,1.36-36.39,3.61-4.53,.85-8.82-1.36-13.29-.71-2.42-3.51-.33-4.1,2.67-4.2,14.6-.49,29.21-.92,43.81-1.54,9.79-.41,19.56-1.12,29.35-1.63,1.72-.09,3.73-.85,4.86,1.34Z"/>
  <path class="cls-81" d="M223.02,128.72c-6.01-11.28-13.15-21.86-20.08-32.57-.71-1.1-1.34-2.25-2.01-3.38,.07-4.19,2.52-5.05,6.06-4.23,7.42,1.72,14.6,4.45,22.23,5.22,5.28,.54,10.45,2.03,15.8,1.93,2.64,5.04,5.28,10.08,7.93,15.12,3.75,3.21,5.4,7.8,7.66,11.96,3.46,6.36,7.36,12.54,9.4,19.59-1.27,4.93-3.62,2.25-4.94,.36-3.34-4.78-8.06-7.66-12.9-10.51-1.02-.6-1.99-1.37-3.17-.75-1.39,.73-.62,2.06-.57,3.13,.1,2.15,1.23,4.08,1.44,6.22,.69,1.23,2.86,3.12-.85,2.77-5.74-.55-11.46-1.35-17.17-2.14-2.08-.29-2.78-2.19-3.69-3.72-1.77-2.96-3.44-5.98-5.15-8.98Z"/>
  <path class="cls-11" d="M197.44,83.73c-.5-.86-1.43-1.69-.21-2.69q7.05-8.47,17.03-3.81c4.37,2.05,8.84,3.8,13.48,5.15,1.79,.52,4.54,.66,4.04,3.39-.45,2.41-2.44,3.83-5.12,3.9-4.25,.11-8.18-1.21-12.14-2.49-5.33-1.72-10.44-4.45-16.34-3.46-.24,.55-.48,.52-.72,0Z"/>
  <path class="cls-39" d="M273.96,107.46c10.79-2.82,17.99-10.81,25.8-17.92,.83,.46,1.13,1.24,1.25,2.12,1.23,4.02-2.58,5.82-3.84,8.75-1.55,1.89-2.82,3.97-4.24,5.95-.93,1.31-1.76,2.85-3.82,2.35-1.61,.82-3.3,1.53-4.82,2.49-3.51,2.22-6.75,4.71-7.1,9.36-.6-1.49-1.52-2.94-1.75-4.49-.59-3.85-2.4-6.19-6.49-6.33,1.22-1.76,3.91-.26,5.01-2.28Z"/>
  <path class="cls-93" d="M269.07,142.63c-5.37-10.61-10.74-21.23-16.11-31.84,2.02-3.18,1.88,1.16,3.07,.88,4.05,6.6,7.12,13.87,13.35,19.84,.79-2.62,.42-6.3,4.51-4.71-.57,.7-1.13,1.41-1.7,2.11,2.3,5.64,5.7,11.04,3.76,17.6-.58,1.06-1.47,1.72-2.65,2-4.45,.25-3.26-3.59-4.24-5.86Z"/>
  <path class="cls-44" d="M197.44,83.73c.24-.05,.48-.05,.72,0,0,.92,.29,1.55,1.31,1.77,13.57,2.93,26.71,8.25,40.98,7.19,2.3-.17,3.82,.8,4.58,2.98-1.25,3.22-3.73,1.86-5.86,1.52-10.27-1.63-20.33-4.17-30.31-7.05-3.24-.93-6.19-1.03-7.92,2.61-1.4-2.02-2.73-4.11-4.23-6.06-1.1-1.43-.88-2.32,.74-2.97Z"/>
  <path class="cls-86" d="M259.04,76.77c-1.49,.16-3.46,2.56-4.17-.9-.51-2.19-.65-4.37,.15-6.53,1.44-1.21,2.24-3.67,4.7-2.96,1.86,.54,2.19,2.42,2.23,4.08,.05,2.51,.75,5.45-2.91,6.3Z"/>
  <path class="cls-67" d="M259.04,76.77c2.6-3.3,2.92-6.56,.56-9.64-2.59-.21,.21,4.59-3.51,2.51-.93-1.94-3.4-3.9,.06-5.8,1.3,.32,2.59,.65,3.89,.97,.99,1.29,1.97,2.58,2.96,3.88,.63,3.9,.02,7.56-2.05,10.95-.86,.18-1.45,.1-.91-1-.33-.62-.67-1.24-1-1.86Z"/>
  <path class="cls-71" d="M260.04,78.63c.3,.33,.61,.67,.91,1-1.23,8.01,5.14,4.08,9.11,5.02-3.36,3.29-6.69,2.69-9.6,1.6-3.72-1.4-1.74-4.76-1.68-7.39,.42-.07,.83-.15,1.25-.22Z"/>
  <path class="cls-62" d="M252.27,72.43c-.54,1.39,1.06,4.07-1.38,3.9-2.24-.16-2.8-2.9-3.05-5.04-.22-1.84,.65-3.68,2.48-3.5,2.91,.28,1.21,3.1,1.95,4.64Z"/>
  <path class="cls-40" d="M256.15,63.84c-2.4,1.91,.56,3.87-.06,5.8-1.95,1.78-.56,4.21-1.22,6.23-1.37-3.99-.19-8.55-2.7-12.29,1-.7,.54-2.4,1.94-2.82,.79,.51,1.07,1.25,.98,2.16,.35,.31,.7,.62,1.05,.93Z"/>
  <path class="cls-55" d="M272.96,147.61c.66-.32,1.32-.65,1.98-.97,1.45-4.07,3.32-4.67,6.55-2.03,1.02,.84,1.81,1.9,2.47,3.06,2.97,5.27,4.87,10.92,6.17,16.8-3.21,5.73-8.26,9.77-12.97,14.12-9.15-9.91-18.3-19.81-28.08-30.41,7.06-.72,9.27,5.41,14.53,7.27-3.12-6.75-8.72-10.58-12.56-15.79-.85-.52-1.56-1.15-2.07-2.04-.52-.92-.83-1.89-.07-2.71,.81-.88,1.82-.41,2.69,.05,3.19,1.71,5.57,4.53,8.7,6.31,1.98,1.22,3.51,3.27,6.11,3.39,2.7-.17,3.38,4.15,6.55,2.94Z"/>
  <path class="cls-85" d="M260.03,142.7c-3.43-2.45-6.87-4.89-10.4-7.41-.7,1.9,1.92,2.65,1.41,4.37-.38,.37-.77,.75-1.15,1.12-.14-.1-.31-.17-.4-.29-2.34-3.27-5.1-7.47-2.34-10.65,2.76-3.17,5.76,1.42,8.53,2.71,4.59,2.15,8.05,5.8,11.04,9.88,.49,.67,1.33,3.37,2.36,.2,1.9,1.19,1.07,4.51,3.89,4.97-3.31,2.65-4.37-1.77-6.72-2.14-4.68-2.52-7.06-7.65-11.17-9.85,1.63,2.03,5.33,3.02,6.1,6.71,.02,.1-.16,.27-.27,.38-.22,.21-.52,.2-.86,0Z"/>
  <path class="cls-55" d="M296.02,99.69c1.66-2.68,3.32-5.35,4.99-8.03,2.59-1.65,2.62-7.02,6.05-6.16,2.74,.68,1.46,5.3,2.56,8.03,.99,2.44,.96,5.51,2.46,7.48,3.39,4.45,1.24,7.61-1.49,10.92-5.99,7.25-13.98,11.09-22.86,13.52-1.88,.52-3.07-.97-4.69-.89-1.01-1.17-.5-2.32,.45-3,7.52-5.4,8.91-14.27,12.53-21.87Z"/>
  <path class="cls-36" d="M296.02,99.69c-1.43,9.07-3.19,17.96-12.06,23.18-.47,.28-.62,1.11-.91,1.68-3.2-.67-4.53-2.6-3.95-5.83,2.44-1.97,6.68-1.2,7.8-5.16,.74-1.62,1.48-3.24,2.22-4.85,3.22-2.31,4.02-6.46,6.91-9.02Z"/>
  <path class="cls-9" d="M286.9,113.57c-.8,4.44-4.46,4.55-7.8,5.16,1.36-3.59,6.29-1.79,7.8-5.16Z"/>
  <path class="cls-47" d="M123.03,465.52c1.43,4.95-3.14,6.83-5.46,9.42-3.01,3.35-7.22,5.64-11,8.27-1.34,.93-3.04,1.99-3.62-.86,7.69-4.42,13.91-10.6,20.09-16.83Z"/>
  <path class="cls-49" d="M118.11,464.45c1.25-.22,2.8-.51,.84-1.91-2.17-1.55-2.07-3.59-1.78-5.78,2.84-.01,3.67,2.87,5.74,3.97-.73,4.66-4.95,6.68-7.59,9.89-1.22,1.49-1.81,.03-2.41-.99-1.09-1.85-1.18-3.09,1.5-3.01,.69-1.64,1.98-2.27,3.69-2.17Z"/>
  <path class="cls-76" d="M122.91,460.73c-3.46,.91-4.69-1.39-5.74-3.97,3.09-3.06,4.92,.7,7.22,1.52,.51,.18-1.91,1.03-1.48,2.45Z"/>
  <path class="cls-1" d="M108.12,475.63c.34-1.04,1.39-1.84,.9-3.15-.34-.91-3.22-1.07-1.04-2.64,1.41-1.02,2.78,.06,3.72,1.33,1.09,1.48,.19,2.46-.98,3.2-.81,.51-1.78,.78-2.67,1.16l.07,.1Z"/>
  <path class="cls-1" d="M103.04,472.58c2.62-.52,3.34,2.11,5.08,3.05,0,0-.07-.1-.07-.1-.38,1.57-2.63,2.9-2.78,2.64-1-1.72-1.5-3.74-2.16-5.65,0,0-.06,.06-.06,.06Z"/>
  <path class="cls-30" d="M118.11,464.45c-.92,1.26-2.3,1.73-3.7,2.17-.83-1.06-1.6-2.34-.32-3.37,1.68-1.34,2.92-.04,4.01,1.2Z"/>
  <path class="cls-99" d="M102.08,479.29c-1.39-.34-2.74-.62-2.78-2.23-.01-.41,.94-1.25,1.33-1.19,2.07,.36,1.55,1.94,1.46,3.42Z"/>
  <path class="cls-62" d="M222.08,194.54c6.62,1.54,8.9,6.59,10.33,12.5,1.71,7.1,3.14,14.27,3.45,21.55,.23,5.57-.97,6.3-6.47,5.57-4.11-.55-8.22-1.02-12.33-1.53,1.08-12.01,2.17-24.01,3.25-36.02,.1-1.12,.67-1.82,1.78-2.07Z"/>
  <path class="cls-84" d="M179.94,423.63c.43-33.62-4.21-67.18-1.54-100.82,1.45,33.6,3.32,67.18,1.54,100.82Z"/>
  <path class="cls-8" d="M196.57,274.86c20.18,.85,37.33,12.3,56.77,15.77-.11,.47-.23,.93-.34,1.4-6.2-1.58-12.47-2.92-18.57-4.82-6.35-1.97-12.55-4.43-18.78-6.78-6.23-2.34-12.64-3.98-19.07-5.57Z"/>
  <path class="cls-63" d="M180.88,296.57c-2-11.2,1-19.7,7.69-21.35-7.78,5.36-4.78,14.29-7.69,21.35Z"/>
  <path class="cls-89" d="M303.3,306.8c-4.97,.36-8.98-2.37-13.16-4.51,4.9-.13,8.97,2.38,13.16,4.51Z"/>
  <path class="cls-84" d="M179.53,306.14c.67,3.23,.74,5.92-.13,9.01-1.75-3.97-1.74-4.88,.13-9.01Z"/>
  <path class="cls-54" d="M145,183.62c4.31,2.35,6.72,8.4,5.03,12.64-1.13,2.82-4.9,3.72-7.55,1.49-3.73-3.14-5.26-7.52-4.27-12.14,.84-3.91,3.81-3.94,6.87-1.93-2.97,2.27-4.09,5.04-2.22,8.54,.59,1.1,1.11,2.79,2.7,2.32,1.59-.48,1.11-2.1,.96-3.39-.29-2.55-2.54-4.7-1.52-7.52Z"/>
  <path class="cls-104" d="M242.9,173.71q-1.77-.35-1.42,2.87c-1.53,1.09-1.47-3.83-3.5-.9-1.26-1.77-1.98-3.7-1.78-5.92,2.02-.9,1.71,2.35,3.53,1.77,.2-1.64,.4-3.33,.73-6.07,1.88,3.21,2.44,5.64,2.44,8.25Z"/>
  <path class="cls-46" d="M128.96,306.66c.38-1.22-.4-2.65,.93-4.13,.97,17.7,3.68,34.86,4.45,52.24,.46,10.48,.53,20.94,.65,31.41,.02,1.77,.53,3.7-.86,5.27-.2-21.72-1.59-43.36-3.9-64.96-.7-6.58-.86-13.22-1.27-19.83Z"/>
  <path class="cls-18" d="M382.23,481.65c13.95-.25,27.82,1.06,42.31,2.12-4.31,2.02-31.19,.64-42.31-2.12Z"/>
  <path class="cls-94" d="M196.99,515.35c2.67,2.09,0,2.06-1.01,2.2-7.2,1.05-14.41,2.04-21.64,2.93-12.48,1.55-24.94,3.33-37.57,3.2-.92,0-1.84,.57-2.76,.87-1.74,.09-3.36-.24-4.04-2.04-.3-.79,.65-.89,1.26-1.02,1.29-1.79,3.24-1.63,5-1.4,11.82,1.56,23.38-.85,35.02-2.1,5.56-.59,11.07-1.77,16.7-1.56,3.11,.46,5.99-.98,9.03-1.1Z"/>
  <path class="cls-47" d="M187.96,516.45c-17.35,2.4-34.6,5.81-52.26,5.07-1.49-.06-2.98-.01-4.46-.02-.4-.64-.8-1.29-1.2-1.93,2.04-1.75,4.52-1.26,6.68-.8,8.84,1.89,17.53,.13,26.25-.74,7.08-.71,14.14-1.66,21.22-2.43,1.3-.14,2.69-.23,3.76,.85Z"/>
  <path class="cls-97" d="M155.09,509.57c3.03-2.33,6.06-4.65,9.09-6.98,1.48,.25,3.79-1.07,4.19,1.21,.28,1.6-1.95,1.9-3.23,2.58-1.74,.93-3.51,1.82-5.18,2.88-1.62,1.02-3.13,2-4.88,.31Z"/>
  <path class="cls-47" d="M118.95,491.38c-9.79,2.32-19.71,2.99-29.71,2.1-2.08-.19-4.07-1.31-6.1-2.01,.59-.28,1.22-.87,1.75-.79,10.6,1.62,21.17,.77,31.76-.06,.74-.06,1.53,.49,2.29,.76Z"/>
  <path class="cls-58" d="M375.81,502.43c8.79-.03,17.43,1.15,25.87,3.7-8.75-.24-17.43-.95-25.87-3.7Z"/>
  <path class="cls-9" d="M268.18,240.5c-4.4,.06-8.86,.97-13.16-.77,4.41-.07,8.83-.43,13.16,.77Z"/>
  <path class="cls-9" d="M284.2,241.47c-3.75,.06-7.56,.9-11.19-.77,3.75-.07,7.56-.92,11.19,.77Z"/>
  <path class="cls-83" d="M375.35,416.1c16.88,.97,33.77,1.94,50.65,2.91-.03,.5-.06,1-.09,1.51-16.94-.17-33.83-1.2-50.67-3.17,.04-.41,.07-.83,.11-1.24Z"/>
  <path class="cls-23" d="M423,374.17c6.82,7.96,12.42,16.71,15.97,26.78-5.73-8.66-11.46-17.33-17.19-25.99,.41-.26,.81-.53,1.22-.79Z"/>
  <path class="cls-4" d="M449.98,329.59v10.37c-3.44-4.12-.65-8.81-2.97-12.39-1.25-12.18-2.93-24.33-2.8-36.63,3.35,12.68,4.36,25.7,5.77,38.65Z"/>
  <path class="cls-64" d="M435.05,352.56c-4.68-10.95-11.95-20.15-19.43-29.24,10.23,8.03,16.93,18.68,22.33,30.3,1.01,3.7,3.67,6.85,3.6,10.95-3.41-3.36-3.96-8.22-6.5-12.01Z"/>
  <path class="cls-105" d="M169.96,492.53c-1.95,2.46-3.86,4.95-5.88,7.35-.57,.67-1.37,1.82-2.4,.82-.66-.64-1.18-1.72-1.22-2.63-.07-1.47,1.13-.66,1.81-.64,1.9,.04,1.89-.97,1.19-2.21-1.06-1.87-2.15-3.77-4.48-4.35-1.45-1.8-.64-2.53,1.19-1.91,1.33,.45,2.32,1.83,3.59,2.57,1.34,.77,2.39,3.29,4.45,1.01,.58-.56,1.17-.58,1.75,0Z"/>
  <path class="cls-81" d="M156.11,505.19c-.54,1.7-1.23,1.93-2.72,.68-2.2-1.86-4.64-3.43-6.97-5.12,5.1-2.6,7.37,.98,9.69,4.45Z"/>
  <path class="cls-81" d="M155.92,497.64c.79,.85,1.56,1.72,2.37,2.54,2.64,2.67,1.57,3.93-1.65,4.39,.76-4.69-3.58-5.04-6.48-7.02,2.28-1.42,4.02-.71,5.76,.09Z"/>
  <path class="cls-14" d="M169.96,492.53c-.58,0-1.16,0-1.75,0-2.1-2.29-4.24-4.53-7.6-6.15,4.88-2.66,6.37,1.19,8.65,3.1,.42,.97,2.26,1.62,.7,3.05Z"/>
  <path class="cls-35" d="M175.73,487.48c-1.35-.15-1.85,2-3.33,1.2-.09-.05,.49-1.35,.75-2.07-1.22-4.44-5.48-2.24-8.23-3.59,4.38-2.54,9.54-.34,10.81,4.46Z"/>
  <path class="cls-100" d="M155.93,491.68c1.11,1.28,3.83,.17,4.03,2.17,.1,1.03-1.07,2.73-2.92,2.74-2.73-1.1-5.79-2.13-1.11-4.91Z"/>
  <path class="cls-94" d="M202.1,518.55c0-5.67-.02-11.35-.03-17.02,1.49,5.67,1.68,11.35,.03,17.02Z"/>
  <path class="cls-53" d="M137.82,491.62c-2.31,3.08-5.91,2.42-8.97,2.75-6.54,.71-13.15,.87-19.73,1.26-.48-.09-1.07-.04-1.42-.31-.58-.45-.17-.72,.36-.74,9.98-.37,19.7-3.37,29.76-2.96Z"/>
  <path class="cls-33" d="M283.95,147.66c-1.42-.76-3.05-1.3-4.22-2.34-2.46-2.17-3.51-.25-4.79,1.31,.94-2.9,.26-5.73-1.07-8.21-1.64-3.07-1.84-6.22-1.68-9.52,1.66-.51,2.4,.65,3.06,1.79,3.17,5.52,6.75,10.83,8.7,16.97Z"/>
  <path class="cls-32" d="M266.99,95.73c-1.07-1.49-1.37-3.46-4.56-4.83,5.55-.05,9.41-.59,13.25-1.4,.72-.15,1.85-.59,1.97,.56,.05,.46-1.08,1.05-1.67,1.58-2.75,1.9-5.5,3.81-8.98,4.09Z"/>
  <path class="cls-94" d="M280.05,74.76c.65,.3,1.29,.6,1.94,.9-6.16,2.82-10.7,.69-12.87-6.04,.6-1.66,1.2-3.32,1.8-4.97,.14,.09,.37,.15,.41,.27,1.48,4.55,4.15,8.04,8.72,9.85Z"/>
  <path class="cls-24" d="M266.99,95.73c2.41-2.66,5.42-3.98,8.98-4.09-1.61,4.41-4.91,5.1-8.98,4.09Z"/>
  <path class="cls-73" d="M255.1,62.91c-1.12-.36-1.07-1.25-.98-2.16,.4-.28,.77-.61,1.2-.83,1.72-.9,3.44-2.03,5.43-.72,.3,.2,.6,.94,.47,1.18-.94,1.68-2.87,1.17-4.3,1.8-.59,.26-1.2,.49-1.81,.73Z"/>
  <path class="cls-25" d="M280.05,74.76c-7.58-.07-9.09-1.75-9.14-10.11,3.34-3.69,6.35-4,9.61-1.01,3.42,3.15,3.26,7.14-.47,11.12Z"/>
  <path class="cls-96" d="M260.03,142.7c-1.84-4.2-6.52-5.64-9.15-9.6,7.55,1.42,11.48,6.86,15.36,12.36-3.25,1.74-4.15-1.81-6.21-2.77Z"/>
  <path class="cls-106" d="M145,183.62c1.86,2.76,3.24,5.75,3.62,9.07,.21,1.87-.23,3.85-2.17,4.57-2.09,.77-3.46-.79-4.33-2.43-.84-1.58-1.52-3.31-1.92-5.05-.91-3.94,.08-6.59,4.86-6.11,0,0-.07-.06-.07-.06Z"/>
  <path class="cls-52" d="M276.7,67.75c-1.15-.03-1.76-.74-2-1.76-.24-1.05,.03-2.02,1.23-2.16,1.11-.14,1.8,.66,2.02,1.67,.22,1.03-.1,1.91-1.25,2.25Z"/>
</svg>