<?xml version="1.0" encoding="utf-8"?>
<!-- Generator: Adobe Illustrator 26.4.0, SVG Export Plug-In . SVG Version: 6.00 Build 0)  -->
<svg version="1.1" id="Layer_1" xmlns="http://www.w3.org/2000/svg" xmlns:xlink="http://www.w3.org/1999/xlink" x="0px" y="0px"
	 viewBox="0 0 250 150" style="enable-background:new 0 0 250 150;" xml:space="preserve">
<style type="text/css">
	.st0{fill:#FECB00;}
</style>
<g>
	<path class="st0" d="M144.76,85.86c-0.07,1.54-0.01,2.68-0.36,3.8c-0.98,3.17-3.41,4.72-6.72,4.22c-2.76-0.41-5.2-1.66-7.59-2.98
		c-3.62-2-7.22-4.03-10.79-6.1c-1.76-1.02-3.44-1.02-5.2-0.02c-3.14,1.8-6.32,3.55-9.47,5.33c-2,1.12-4.02,2.2-6.18,2.98
		c-6.27,2.29-10.4-0.89-9.83-7.53c0.31-3.68,1.16-7.27,1.95-10.86c0.43-1.98,0.78-3.99,1.21-5.97c0.44-2.03-0.01-3.73-1.58-5.15
		c-2.36-2.13-4.67-4.32-7.03-6.46c-2.26-2.06-4.54-4.1-6.3-6.62c-3.17-4.54-1.84-8.68,3.43-10.46c4.27-1.43,8.75-1.53,13.17-2.02
		c1.77-0.2,3.52-0.52,5.3-0.67c2.14-0.18,3.46-1.33,4.31-3.22c1.73-3.82,3.49-7.62,5.26-11.41c0.92-1.96,1.97-3.85,3.34-5.54
		c3.08-3.8,7.29-3.8,10.32,0.02c2.07,2.62,3.4,5.65,4.74,8.67c1.37,3.07,2.58,6.22,4.23,9.16c0.7,1.25,1.67,1.96,3.09,2.25
		c4.94,1.01,10,1.01,14.96,1.88c2.2,0.39,4.39,0.82,6.33,1.98c2.87,1.71,3.74,4.45,2.45,7.53c-0.8,1.91-2.11,3.49-3.59,4.89
		c-3.15,2.96-6.3,5.94-9.59,8.74c-2.58,2.2-3.58,4.64-2.71,8.04c1.04,4.12,1.73,8.32,2.52,12.5
		C144.63,83.97,144.68,85.12,144.76,85.86z"/>
	<path class="st0" d="M160.72,98.26c0.15-2.87,1.29-6.46,2.12-10.1c0.47-2.07,0.13-3.68-1.52-5.09c-1.79-1.52-3.47-3.18-5.19-4.79
		c-0.6-0.57-1.21-1.14-1.74-1.77c-1.7-2.02-3.45-4.08-2.43-6.99c1.01-2.89,3.63-3.6,6.24-3.99c3.33-0.5,6.69-0.82,10.05-1.09
		c1.74-0.14,2.79-0.96,3.47-2.48c1.04-2.31,2.12-4.61,3.22-6.9c0.77-1.61,1.62-3.18,2.82-4.51c2.63-2.92,6.05-2.82,8.48,0.26
		c0.99,1.25,1.75,2.65,2.39,4.11c0.92,2.09,1.96,4.15,2.67,6.31c0.89,2.68,2.71,3.68,5.38,3.9c2.91,0.23,5.8,0.71,8.69,1.15
		c0.87,0.13,1.73,0.43,2.55,0.77c3.71,1.52,4.72,4.89,2.45,8.22c-1.96,2.88-4.63,5.11-7.39,7.12c-3.02,2.19-3.78,4.69-2.8,8.19
		c0.87,3.1,1.55,6.29,1.48,9.57c-0.09,4.62-3.17,6.85-7.56,5.38c-3.47-1.16-6.5-3.21-9.52-5.19c-2.37-1.55-4.39-1.62-6.81-0.12
		c-2.9,1.8-5.85,3.61-9.13,4.72C163.72,106.6,160.63,104.35,160.72,98.26z"/>
	<path class="st0" d="M31.87,98.49c0.12-2.7,1.04-6.15,1.75-9.62c0.44-2.14,0.09-3.77-1.67-5.21c-2.46-2.01-4.84-4.13-7.1-6.36
		c-1.83-1.8-3.51-3.88-2.69-6.72c0.87-3.02,3.51-3.86,6.2-4.33c3.32-0.58,6.66-1.03,10.01-1.39c1.75-0.19,2.74-1.09,3.38-2.61
		c1.04-2.46,2.1-4.9,3.17-7.34c0.69-1.57,1.51-3.09,2.64-4.4c2.32-2.7,5.48-2.78,7.97-0.23c1.58,1.62,2.53,3.64,3.49,5.65
		c0.71,1.49,1.54,2.94,2.04,4.5c1.01,3.15,3.22,4.21,6.34,4.29c3.11,0.08,6.23,0.3,9.27,1.08c5.46,1.41,6.79,5.22,3.34,9.68
		c-2.11,2.73-4.78,4.94-7.37,7.18c-1.9,1.65-2.55,3.39-1.83,5.86c0.77,2.67,1.21,5.44,1.81,8.17c0.27,1.26,0.28,2.53,0.2,3.8
		c-0.23,3.56-2.99,5.6-6.48,4.85c-2.46-0.54-4.61-1.78-6.79-2.96c-8.77-4.73-5.71-4.69-14.33,0.24c-1.6,0.92-3.17,1.88-4.89,2.56
		C35.06,107.26,31.79,105,31.87,98.49z"/>
</g>
</svg>
