<?xml version="1.0" encoding="utf-8"?>
<!-- Generator: Adobe Illustrator 26.4.0, SVG Export Plug-In . SVG Version: 6.00 Build 0)  -->
<svg version="1.1" id="Layer_1" xmlns="http://www.w3.org/2000/svg" xmlns:xlink="http://www.w3.org/1999/xlink" x="0px" y="0px"
	 viewBox="0 0 250 150" style="enable-background:new 0 0 250 150;" xml:space="preserve">
<style type="text/css">
	.st0{fill:#FECB00;}
</style>
<g>
	<path class="st0" d="M152.35,74.15c0.5,1.46,0.97,2.5,1.05,3.67c0.24,3.31-1.45,5.64-4.71,6.38c-2.72,0.62-5.44,0.35-8.16,0
		c-4.1-0.54-8.19-1.12-12.28-1.73c-2.01-0.3-3.58,0.31-4.84,1.88c-2.27,2.83-4.58,5.62-6.87,8.42c-1.45,1.78-2.94,3.51-4.66,5.03
		c-5,4.42-10.01,2.97-11.9-3.42c-1.05-3.54-1.57-7.19-2.15-10.83c-0.32-2-0.73-4-1.05-6c-0.33-2.05-1.37-3.47-3.35-4.22
		c-2.98-1.12-5.93-2.31-8.9-3.44c-2.86-1.09-5.72-2.15-8.29-3.86c-4.61-3.07-4.88-7.41-0.62-10.99c3.45-2.89,7.59-4.62,11.52-6.7
		c1.57-0.83,3.09-1.77,4.69-2.56c1.93-0.95,2.73-2.5,2.84-4.57c0.21-4.18,0.47-8.37,0.73-12.55c0.14-2.16,0.43-4.3,1.09-6.38
		c1.48-4.66,5.4-6.2,9.62-3.75c2.89,1.68,5.23,4.02,7.58,6.34c2.4,2.36,4.67,4.85,7.29,6.98c1.11,0.9,2.27,1.21,3.69,0.96
		c4.97-0.87,9.68-2.71,14.61-3.71c2.19-0.44,4.38-0.84,6.62-0.47c3.29,0.55,5.11,2.77,5.03,6.12c-0.05,2.07-0.68,4.02-1.56,5.86
		c-1.85,3.91-3.7,7.83-5.73,11.64c-1.59,2.99-1.63,5.63,0.41,8.48c2.47,3.45,4.65,7.12,6.91,10.72
		C151.55,72.43,152.01,73.49,152.35,74.15z"/>
	<path class="st0" d="M171.74,79.86c-0.91-2.72-1.16-6.48-1.72-10.18c-0.32-2.1-1.22-3.47-3.28-4.18c-2.22-0.76-4.39-1.69-6.58-2.56
		c-0.77-0.31-1.54-0.62-2.26-1.01c-2.32-1.26-4.7-2.54-4.82-5.62c-0.11-3.06,2.06-4.68,4.35-5.99c2.92-1.68,5.93-3.21,8.96-4.68
		c1.57-0.76,2.24-1.91,2.33-3.58c0.13-2.54,0.29-5.07,0.48-7.6c0.13-1.78,0.34-3.55,0.97-5.23c1.38-3.68,4.6-4.83,7.99-2.86
		c1.38,0.81,2.6,1.82,3.73,2.95c1.62,1.61,3.34,3.14,4.79,4.89c1.81,2.17,3.87,2.44,6.44,1.66c2.79-0.85,5.66-1.46,8.51-2.1
		c0.86-0.19,1.77-0.23,2.65-0.22c4.01,0.06,6.18,2.83,5.29,6.75c-0.77,3.4-2.44,6.45-4.28,9.33c-2.01,3.14-1.81,5.75,0.39,8.65
		c1.94,2.57,3.74,5.29,4.87,8.36c1.6,4.33-0.45,7.53-5.07,7.77c-3.66,0.19-7.22-0.61-10.76-1.36c-2.77-0.58-4.68,0.09-6.38,2.38
		c-2.04,2.74-4.13,5.49-6.77,7.73C177.59,86.53,173.88,85.56,171.74,79.86z"/>
	<path class="st0" d="M51.89,127.14c-0.87-2.56-1.28-6.1-1.89-9.6c-0.37-2.15-1.29-3.54-3.46-4.24c-3.02-0.98-6.02-2.08-8.94-3.33
		c-2.36-1.01-4.69-2.33-4.96-5.27c-0.29-3.13,1.86-4.87,4.19-6.29c2.88-1.75,5.82-3.39,8.81-4.95c1.56-0.82,2.15-2.01,2.19-3.66
		c0.07-2.66,0.16-5.33,0.27-7.99c0.07-1.72,0.28-3.43,0.85-5.06c1.18-3.36,4.08-4.59,7.33-3.12c2.06,0.94,3.69,2.47,5.31,3.99
		c1.21,1.13,2.51,2.18,3.55,3.45c2.09,2.56,4.53,2.75,7.47,1.68c2.92-1.06,5.91-2,9.02-2.38c5.6-0.68,8.23,2.38,6.64,7.8
		c-0.97,3.31-2.64,6.34-4.23,9.38c-1.17,2.23-1.13,4.09,0.44,6.13c1.7,2.21,3.12,4.62,4.67,6.95c0.71,1.07,1.19,2.25,1.57,3.46
		c1.09,3.4-0.74,6.31-4.26,6.88c-2.49,0.4-4.95,0.03-7.4-0.27c-9.89-1.2-7.03-2.28-13.25,5.46c-1.15,1.44-2.26,2.91-3.62,4.17
		C58.06,134.14,54.18,133.23,51.89,127.14z"/>
</g>
</svg>
